<?xml version="1.0" encoding="UTF-8" standalone="no"?>
<svg
   id="logo-akademie-ctk"
   xml:space="preserve"
   width="888.01459"
   height="205.85402"
   version="1.1"
   style="clip-rule:evenodd;fill-rule:evenodd;image-rendering:optimizeQuality;shape-rendering:geometricPrecision;text-rendering:geometricPrecision"
   viewBox="0 0 1030.1991 239.00001"
   sodipodi:docname="ctk.svg"
   inkscape:export-filename="../../static/img/partners/ctk-akademie.svg"
   inkscape:export-xdpi="96"
   inkscape:export-ydpi="96"
   xmlns:inkscape="http://www.inkscape.org/namespaces/inkscape"
   xmlns:sodipodi="http://sodipodi.sourceforge.net/DTD/sodipodi-0.dtd"
   xmlns="http://www.w3.org/2000/svg"
   xmlns:svg="http://www.w3.org/2000/svg"><sodipodi:namedview
   id="namedview11"
   pagecolor="#ffffff"
   bordercolor="#999999"
   borderopacity="1"
   inkscape:showpageshadow="2"
   inkscape:pageopacity="0"
   inkscape:pagecheckerboard="0"
   inkscape:deskcolor="#d1d1d1" />
 <defs
   id="defs1" />
 <g
   id="Vrstva_x0020_1"
   transform="translate(-89.470335,-86)">
  
  <g
   id="_2014775926928">
   <g
   id="g1">
    
   </g>
   <g
   id="g4">
    <path
   class="fil1"
   d="m 226,163 v 34 h 13 c 0,-10 0,-21 19,-21 v 57 c 0,0 1,4 -7,4 h -10 v 13 h 57 v -13 h -10 c -8,0 -7,-4 -7,-4 v -57 c 19,0 19,11 19,21 h 13 v -34 z"
   id="path1" />
    <path
   class="fil1"
   d="m 324,163 v 13 c 0,0 8,0 8,4 v 54 c 0,0 1,3 -8,3 v 13 h 40 v -13 c 0,0 -7,1 -7,-4 v -15 l 6,-5 15,20 c 0,0 3,4 -6,4 v 13 h 43 v -13 c 0,0 -5,1 -8,-3 l -25,-36 18,-15 c 0,0 6,-6 15,-7 v -13 h -43 v 13 c 0,0 14,-1 7,5 -1,0 -22,20 -22,20 v -21 c 0,0 0,-4 7,-4 v -13 z"
   id="path2" />
    <g
   id="g3">
     <polygon
   class="fil1"
   points="191,157 200,143 185,143 180,150 176,143 154,143 162,157 "
   id="polygon2" />
     <path
   class="fil1"
   d="m 215,163 v 34 h -12 c 0,0 -1,-21 -21,-21 0,0 -24,-2 -22,33 0,0 -1,27 22,28 0,0 17,2 20,-19 h 13 c 0,0 0,33 -39,33 0,0 -41,0 -44,-42 0,0 -3,-24 15,-38 0,0 10,-12 30,-10 0,0 10,0 22,7 0,0 2,2 4,-1 l 2,-4 z"
   id="path3" />
    </g>
   </g>
   <path
   class="fil2"
   d="m 274,86 v 0 0 C 172,86 89,140 89,206 c 0,65 83,119 185,119 v 0 0 C 376,325 459,271 459,206 459,140 376,86 274,86 Z m 81,20 v 0 c -6,2 -13,4 -20,6 -6,-6 -13,-11 -20,-15 14,2 27,5 40,9 z M 278,94 v 0 c 18,1 34,8 48,20 -15,3 -32,4 -48,4 z m -44,3 v 0 c -8,4 -15,9 -21,15 -7,-2 -13,-4 -20,-6 13,-4 26,-7 41,-9 z m 36,-3 v 0 24 c -16,0 -32,-1 -48,-4 14,-12 31,-19 48,-20 z m -78,211 v 0 c 7,-3 14,-4 21,-6 6,6 13,11 21,15 -15,-2 -29,-5 -42,-9 z m 78,12 v 0 c -18,-1 -35,-8 -49,-20 16,-3 33,-5 49,-5 z m 45,-3 v 0 c 7,-4 14,-9 21,-15 7,2 14,3 20,6 -13,4 -27,7 -41,9 z m -37,3 v 0 -25 c 17,0 33,2 49,5 -14,12 -31,19 -49,20 z m 89,-16 v 0 c -8,-3 -16,-6 -25,-8 8,-9 14,-20 20,-31 h -9 c -5,11 -12,21 -19,29 -18,-4 -37,-6 -56,-6 v -23 h -8 v 23 c -19,0 -37,2 -55,6 -8,-8 -15,-18 -20,-29 h -8 c 5,11 12,22 20,31 -9,2 -18,5 -26,8 -50,-20 -84,-55 -84,-95 0,-41 34,-76 85,-96 8,3 16,6 25,8 -4,4 -7,8 -10,13 h 9 c 3,-4 6,-8 9,-11 18,4 37,6 55,6 v 25 h 8 v -25 c 19,0 37,-2 55,-6 9,9 16,19 21,31 h 8 c -5,-12 -12,-24 -21,-33 9,-2 17,-5 25,-8 51,20 85,55 85,96 0,40 -33,75 -84,95 z"
   id="path4" />
   <path
   class="fil3"
   d="m 425,317 c -4,3 -8,5 -12,8 h 707 v -8 z"
   id="path5" />
   <g
   id="g11">
    <path
   class="fil1"
   d="m 563,250 h -12 l -10,-28 h -36 l -11,28 h -11 l 34,-87 h 12 z m -37,-68 v 0 c -1,-1 -1,-2 -1,-3 l -1,-3 c -1,-1 -1,-2 -1,-3 -1,3 -2,6 -3,9 l -12,32 h 29 z"
   id="path6" />
    <path
   class="fil1"
   d="m 590,250 h -10 v -87 h 10 z m 14,-46 v 0 l 38,46 h -13 l -38,-45 35,-42 h 13 z"
   id="path7" />
    <path
   class="fil1"
   d="m 729,250 h -12 l -11,-28 h -35 l -11,28 h -11 l 34,-87 h 12 z m -38,-68 v 0 c 0,-1 0,-2 0,-3 l -1,-3 c -1,-1 -1,-2 -1,-3 -1,3 -2,6 -3,9 l -12,32 h 29 z"
   id="path8" />
    <path
   class="fil1"
   d="m 771,163 c 16,0 24,2 32,8 10,7 14,19 14,35 0,26 -16,44 -41,44 h -31 v -87 z m -15,78 v 0 h 14 c 14,0 20,-2 27,-8 6,-7 9,-16 9,-28 0,-12 -4,-22 -11,-27 -6,-4 -13,-6 -24,-6 h -15 z"
   id="path9" />
    <polygon
   class="fil1"
   points="849,201 884,201 884,210 849,210 849,241 886,241 886,250 838,250 838,163 884,163 884,172 849,172 "
   id="polygon9" />
    <path
   class="fil1"
   d="m 1006,250 h -11 l -4,-54 c -1,-9 -1,-14 -1,-21 -3,9 -4,15 -8,24 l -20,51 h -12 l -21,-54 c -4,-8 -5,-12 -8,-21 0,9 0,15 -1,21 l -4,54 h -10 l 7,-87 h 13 l 26,65 c 1,3 2,6 4,13 1,-5 2,-9 4,-15 l 25,-63 h 13 z"
   id="path10" />
    <polygon
   class="fil1"
   points="1032,163 1043,163 1043,250 1032,250 "
   id="polygon10" />
    <polygon
   class="fil1"
   points="1083,201 1118,201 1118,210 1083,210 1083,241 1120,241 1120,250 1072,250 1072,163 1118,163 1118,172 1083,172 "
   id="polygon11" />
   </g>
   <path
   class="fil4"
   d="m 413,86 c 4,3 8,5 12,8 h 695 v -8 z"
   id="path11" />
  </g>
 </g>
</svg>
