<svg width="228" height="100" viewBox="0 0 228 100" fill="none" xmlns="http://www.w3.org/2000/svg">
<g clip-path="url(#clip0_49_789)">
<path d="M119.231 87.151C113.807 86.4761 109.55 83.7502 106.474 78.9732C103.384 74.1961 101.846 67.765 101.846 59.6798C101.846 51.5946 103.384 44.9385 106.474 40.135C109.564 35.3315 113.821 32.5658 119.231 31.8513V34.3258C115.425 35.0139 112.521 37.4487 110.532 41.6038C108.543 45.7589 107.548 51.8063 107.548 59.7327C107.548 67.6591 108.516 73.1507 110.465 77.3455C112.415 81.5403 115.332 83.9884 119.218 84.7029V87.1378L119.231 87.151Z" fill="#ED433D"/>
<path d="M-0.000410665 84.7162C3.88512 84.0016 6.81585 81.5535 8.75199 77.3587C10.7014 73.164 11.6695 67.3018 11.6695 59.7459C11.6695 51.8195 10.6749 45.7721 8.68568 41.6171C6.6965 37.462 3.80556 35.0271 -0.0136719 34.339V31.8645C5.41016 32.5791 9.66701 35.3315 12.7436 40.1482C15.8335 44.9517 17.3718 51.4622 17.3718 59.693C17.3718 67.9238 15.8335 74.2094 12.7436 78.9864C9.65375 83.7634 5.3969 86.4894 -0.0136719 87.1642V84.7294L-0.000410665 84.7162Z" fill="#ED433D"/>
<path d="M62.7916 55.0086H45.6184V52.6664C46.1621 52.6134 46.7588 52.5737 47.4219 52.5208C48.0717 52.4679 48.6154 52.3753 49.0397 52.2429C49.7028 52.0312 50.1935 51.6607 50.525 51.1181C50.8433 50.5888 51.0024 49.8875 51.0024 49.0406V31.0176C51.0024 28.5298 50.4189 26.6111 49.2387 25.2613C48.0584 23.9116 46.6262 23.2367 44.942 23.2367C43.6822 23.2367 42.5285 23.4352 41.4809 23.819C40.4332 24.2027 39.5049 24.6923 38.696 25.2613C37.9136 25.8039 37.2903 26.3993 36.8262 27.0213C36.362 27.6432 36.0172 28.1593 35.8051 28.5298V48.6833C35.8051 49.4905 35.9642 50.1522 36.309 50.6682C36.6405 51.1843 37.1312 51.5945 37.8075 51.8724C38.3114 52.1106 38.8419 52.2826 39.4254 52.4017C40.0089 52.5208 40.6056 52.6002 41.2289 52.6531V54.9953H24.0291V52.6531C24.5728 52.6002 25.143 52.5605 25.7265 52.5076C26.31 52.4547 26.814 52.362 27.2383 52.2297C27.9014 52.018 28.392 51.6475 28.7236 51.1049C29.0418 50.5756 29.201 49.8743 29.201 49.0274V27.405C29.201 26.5978 29.0286 25.8568 28.6838 25.1819C28.339 24.5071 27.8616 23.9645 27.2383 23.5278C26.7874 23.2499 26.257 23.0382 25.6337 22.9059C25.0104 22.7736 24.3474 22.6942 23.6445 22.6412V20.299L35.3277 19.5183L35.8183 20.0212V24.957H35.9907C36.561 24.388 37.2771 23.7131 38.1258 22.9191C38.9745 22.1252 39.7834 21.4768 40.5526 20.9871C41.4278 20.4181 42.4754 19.9418 43.6822 19.5712C44.889 19.1875 46.2549 19.0022 47.7799 19.0022C51.1483 19.0022 53.6547 20.0476 55.2725 22.1516C56.9036 24.2424 57.7126 27.0345 57.7126 30.5147V48.7495C57.7126 49.5831 57.8585 50.2448 58.1369 50.7609C58.4154 51.2637 58.9061 51.6607 59.5957 51.9518C60.1659 52.19 60.6566 52.3488 61.0809 52.4547C61.492 52.5473 62.0755 52.6134 62.8049 52.6664V55.0086H62.7916Z" fill="black"/>
<path d="M96.0501 4.26095C96.0501 5.3328 95.7716 6.23263 95.2013 6.96043C94.6311 7.68824 93.7691 8.05875 92.6021 8.05875C91.8728 8.05875 91.223 7.89996 90.666 7.59561C90.109 7.29125 89.5918 6.86781 89.1144 6.35173C88.637 5.83565 88.1994 5.24018 87.8016 4.57854C87.4038 3.9169 87.059 3.38759 86.7672 2.97737C85.1759 3.04354 83.9426 4.15509 83.0806 6.2988C82.2186 8.4425 81.781 11.8433 81.781 16.5277V20.1138H88.5707V23.5279H81.781V48.6833C81.781 49.517 81.9401 50.1919 82.2584 50.708C82.5767 51.224 83.0806 51.621 83.7702 51.8857C84.3404 52.0974 85.0963 52.2694 86.0511 52.4017C87.0059 52.5341 87.8148 52.6267 88.5044 52.6664V55.0086H69.9918V52.6664C70.5355 52.6135 71.1057 52.5738 71.6892 52.5208C72.2727 52.4679 72.7766 52.3753 73.201 52.243C73.8641 52.0312 74.3547 51.6607 74.6862 51.1182C75.0045 50.5889 75.1637 49.8875 75.1637 49.0406V23.5279H68.5596V20.1138H75.1637V17.8775C75.1637 12.5579 76.5428 8.24401 79.3144 4.94905C82.086 1.6541 85.5472 0 89.6979 0C91.8065 0 93.3978 0.410216 94.472 1.24388C95.5329 2.07754 96.0766 3.08323 96.0766 4.26095H96.0501Z" fill="black"/>
<path d="M62.7916 100H45.6184V97.6578C46.1621 97.6049 46.7588 97.5652 47.4219 97.5122C48.0717 97.4593 48.6154 97.3667 49.0397 97.2343C49.7028 97.0226 50.1935 96.6521 50.525 96.1095C50.8433 95.5802 51.0024 94.8789 51.0024 94.032V76.009C51.0024 73.5212 50.4189 71.6025 49.2387 70.2527C48.0584 68.903 46.6262 68.2281 44.942 68.2281C43.6822 68.2281 42.5285 68.4266 41.4809 68.8104C40.4332 69.1941 39.5049 69.6837 38.696 70.2527C37.9136 70.7953 37.2903 71.3907 36.8262 72.0127C36.362 72.6346 36.0172 73.1507 35.8051 73.5212V93.6747C35.8051 94.4819 35.9642 95.1436 36.309 95.6596C36.6405 96.1757 37.1312 96.5859 37.8075 96.8638C38.3114 97.102 38.8419 97.274 39.4254 97.3931C40.0089 97.5122 40.6056 97.5916 41.2289 97.6446V99.9867H24.0291V97.6446C24.5728 97.5916 25.143 97.5519 25.7265 97.499C26.31 97.4461 26.814 97.3534 27.2383 97.2211C27.9014 97.0094 28.392 96.6389 28.7236 96.0963C29.0418 95.567 29.201 94.8657 29.201 94.0188V72.3964C29.201 71.5892 29.0286 70.8482 28.6838 70.1733C28.339 69.4985 27.8616 68.9559 27.2383 68.5192C26.7874 68.2413 26.257 68.0296 25.6337 67.8973C25.0104 67.765 24.3474 67.6856 23.6445 67.6326V65.2904L35.3277 64.5097L35.8183 65.0126V69.9484H35.9907C36.561 69.3794 37.2771 68.7045 38.1258 67.9105C38.9745 67.1166 39.7834 66.4682 40.5526 65.9785C41.4278 65.4095 42.4754 64.9332 43.6822 64.5626C44.889 64.1789 46.2549 63.9936 47.7799 63.9936C51.1483 63.9936 53.6547 65.039 55.2725 67.143C56.9036 69.2338 57.7126 72.0259 57.7126 75.5061V93.7409C57.7126 94.5745 57.8585 95.2362 58.1369 95.7523C58.4154 96.2551 58.9061 96.6521 59.5957 96.9432C60.1659 97.1814 60.6566 97.3402 61.0809 97.4461C61.492 97.5387 62.0755 97.6049 62.8049 97.6578V100H62.7916Z" fill="black"/>
<path d="M95.6131 100H67.1943V98.121L87.0994 67.8444H82.1795C80.1108 67.8444 78.4929 67.8841 77.3259 67.9503C76.1589 68.0164 75.0848 68.2546 74.1167 68.6649C73.4536 68.9295 72.8304 69.6705 72.2469 70.9012C71.6634 72.1318 71.1594 73.7462 70.7351 75.7311H68.5602V64.9597H95.4142V66.4153L75.2306 97.1153C76.0793 97.1418 77.0209 97.155 78.042 97.1682C79.0631 97.1682 80.1638 97.1815 81.3573 97.1815C82.3121 97.1815 83.2934 97.1815 84.3278 97.1418C85.3622 97.1153 86.6883 97.0624 88.2929 96.9697C89.2345 96.9168 89.9638 96.5992 90.4412 96.017C90.9319 95.4215 91.3032 94.7466 91.5685 93.9924C91.8337 93.3043 92.1387 92.3647 92.51 91.1473C92.8813 89.9431 93.2128 88.7654 93.4913 87.6274H95.6264V100H95.6131Z" fill="black"/>
<path d="M143.791 36.5357C143.645 36.5357 143.407 36.5886 143.102 36.668C142.783 36.7474 142.558 36.8268 142.425 36.9194C142.226 37.0517 142.094 37.3164 142.028 37.7002C141.961 38.0839 141.921 38.5603 141.921 39.1558V47.5453H141.219L134.256 38.1633V44.0783C134.256 44.74 134.296 45.2428 134.376 45.6001C134.455 45.9574 134.588 46.2088 134.76 46.3544C134.88 46.4735 135.145 46.5793 135.53 46.6852C135.914 46.7911 136.179 46.844 136.299 46.844V47.413H131.591V46.844C131.737 46.844 131.976 46.7778 132.334 46.6852C132.678 46.5926 132.891 46.5132 132.983 46.4338C133.169 46.2882 133.302 46.05 133.368 45.7457C133.434 45.4413 133.474 44.912 133.474 44.1577V38.5074C133.474 38.2559 133.434 38.0045 133.341 37.7663C133.249 37.5149 133.142 37.3296 132.997 37.1973C132.798 37.0253 132.546 36.8665 132.214 36.7474C131.883 36.6283 131.617 36.5489 131.405 36.5357V35.9667H134.681L141.139 44.7003V39.2484C141.139 38.5867 141.099 38.0707 141.006 37.7134C140.914 37.3561 140.794 37.1179 140.635 36.9988C140.489 36.893 140.237 36.8003 139.892 36.7077C139.548 36.6151 139.296 36.5489 139.11 36.5489V35.9799H143.778V36.5489L143.791 36.5357Z" fill="black"/>
<path d="M151.589 47.2807C151.337 47.3733 151.111 47.4395 150.926 47.5056C150.74 47.5586 150.515 47.585 150.276 47.585C149.851 47.585 149.52 47.4924 149.268 47.2939C149.016 47.0954 148.857 46.8043 148.791 46.4338H148.738C148.393 46.8175 148.008 47.1219 147.61 47.3204C147.212 47.5189 146.722 47.6247 146.165 47.6247C145.568 47.6247 145.077 47.4395 144.693 47.069C144.308 46.6984 144.109 46.2221 144.109 45.6266C144.109 45.3222 144.149 45.0443 144.242 44.8062C144.335 44.568 144.454 44.343 144.627 44.1577C144.759 43.999 144.945 43.8534 145.157 43.7211C145.382 43.5887 145.581 43.4961 145.78 43.4167C146.019 43.3241 146.51 43.1521 147.252 42.9139C147.995 42.6624 148.499 42.4772 148.751 42.3316V41.5377C148.751 41.4715 148.738 41.3259 148.711 41.1274C148.684 40.929 148.618 40.7437 148.525 40.5584C148.419 40.3599 148.26 40.1879 148.074 40.0424C147.876 39.8968 147.597 39.8174 147.239 39.8174C146.987 39.8174 146.762 39.8571 146.549 39.9365C146.337 40.0159 146.191 40.1085 146.099 40.2011C146.099 40.307 146.125 40.4658 146.178 40.6775C146.231 40.8893 146.258 41.0877 146.258 41.2598C146.258 41.445 146.178 41.6171 146.006 41.7758C145.833 41.9346 145.595 42.014 145.303 42.014C145.038 42.014 144.839 41.9214 144.706 41.7229C144.574 41.5377 144.52 41.3127 144.52 41.0877C144.52 40.8363 144.613 40.5981 144.786 40.3732C144.958 40.1482 145.184 39.9497 145.475 39.7645C145.714 39.6189 146.019 39.4866 146.351 39.3807C146.695 39.2749 147.04 39.2219 147.358 39.2219C147.809 39.2219 148.207 39.2484 148.539 39.3146C148.87 39.3807 149.188 39.513 149.454 39.7115C149.732 39.91 149.944 40.1747 150.077 40.5187C150.223 40.8628 150.289 41.2995 150.289 41.842C150.289 42.6095 150.289 43.2976 150.263 43.8931C150.249 44.4886 150.236 45.137 150.236 45.8383C150.236 46.05 150.276 46.2221 150.342 46.3412C150.408 46.4602 150.528 46.5661 150.674 46.6587C150.753 46.7117 150.886 46.7381 151.058 46.7381C151.231 46.7381 151.416 46.7381 151.602 46.7381V47.2542L151.589 47.2807ZM148.764 43.0197C148.3 43.1521 147.902 43.2844 147.557 43.4167C147.212 43.549 146.894 43.7078 146.589 43.9063C146.324 44.0916 146.112 44.3033 145.953 44.5547C145.794 44.8061 145.714 45.0973 145.714 45.4546C145.714 45.9045 145.833 46.2353 146.072 46.447C146.311 46.6587 146.602 46.7646 146.961 46.7646C147.345 46.7646 147.677 46.672 147.968 46.4867C148.26 46.3015 148.512 46.0765 148.711 45.8251L148.764 43.033V43.0197Z" fill="black"/>
<path d="M160.846 47.2807L158.047 47.4527L157.928 47.3336V46.5926H157.862C157.583 46.8837 157.239 47.1483 156.827 47.3468C156.416 47.5453 155.992 47.638 155.554 47.638C155.117 47.638 154.666 47.5321 154.242 47.3336C153.817 47.1351 153.446 46.844 153.141 46.4867C152.823 46.1162 152.571 45.6663 152.385 45.1502C152.199 44.6209 152.106 44.0519 152.106 43.4167C152.106 42.8345 152.213 42.2919 152.411 41.7758C152.61 41.2598 152.889 40.8099 153.234 40.4129C153.565 40.0556 153.963 39.7645 154.44 39.5527C154.918 39.341 155.408 39.2351 155.899 39.2351C156.27 39.2351 156.642 39.2881 157 39.3807C157.358 39.4733 157.663 39.5924 157.928 39.738V36.9591C157.928 36.7342 157.888 36.5224 157.809 36.3372C157.729 36.1519 157.623 36.0064 157.491 35.9137C157.345 35.8079 157.132 35.7417 156.88 35.6888C156.629 35.6358 156.35 35.6094 156.058 35.5829V35.0801L159.334 34.908L159.453 35.0271V45.7589C159.453 45.9442 159.493 46.103 159.559 46.2353C159.626 46.3676 159.732 46.4735 159.878 46.5661C159.984 46.6323 160.129 46.672 160.328 46.6852C160.527 46.6984 160.7 46.7117 160.859 46.7117V47.241L160.846 47.2807ZM157.915 45.8912V41.2333C157.875 41.0877 157.796 40.9422 157.703 40.7834C157.61 40.6246 157.491 40.479 157.345 40.3335C157.185 40.2011 157 40.082 156.801 40.0026C156.589 39.91 156.35 39.8703 156.072 39.8703C155.753 39.8703 155.448 39.9497 155.183 40.1217C154.918 40.2938 154.666 40.532 154.467 40.8363C154.268 41.1407 154.109 41.5244 153.99 41.9876C153.87 42.4507 153.817 42.9668 153.817 43.5358C153.817 43.9857 153.857 44.3959 153.95 44.7664C154.043 45.137 154.175 45.481 154.387 45.7986C154.573 46.103 154.812 46.3411 155.103 46.5264C155.395 46.7117 155.74 46.8043 156.151 46.8043C156.589 46.8043 156.934 46.7117 157.225 46.5264C157.504 46.3411 157.742 46.1294 157.941 45.9045L157.915 45.8912Z" fill="black"/>
<path d="M169.266 47.2807C169.014 47.3733 168.789 47.4395 168.603 47.5056C168.418 47.5586 168.192 47.585 167.954 47.585C167.529 47.585 167.198 47.4924 166.946 47.2939C166.694 47.0954 166.535 46.8043 166.468 46.4338H166.415C166.07 46.8175 165.686 47.1219 165.288 47.3204C164.89 47.5189 164.4 47.6247 163.843 47.6247C163.246 47.6247 162.755 47.4395 162.371 47.069C161.986 46.6984 161.787 46.2221 161.787 45.6266C161.787 45.3222 161.827 45.0443 161.92 44.8062C162.013 44.568 162.132 44.343 162.304 44.1577C162.437 43.999 162.623 43.8534 162.835 43.7211C163.06 43.5887 163.259 43.4961 163.458 43.4167C163.697 43.3241 164.187 43.1521 164.93 42.9139C165.673 42.6757 166.177 42.4772 166.429 42.3316V41.5377C166.429 41.4715 166.415 41.3259 166.389 41.1274C166.362 40.929 166.296 40.7437 166.203 40.5584C166.097 40.3599 165.938 40.1879 165.752 40.0424C165.553 39.8968 165.275 39.8174 164.917 39.8174C164.665 39.8174 164.439 39.8571 164.227 39.9365C164.015 40.0159 163.869 40.1085 163.776 40.2011C163.776 40.307 163.803 40.4658 163.856 40.6775C163.909 40.8893 163.935 41.0877 163.935 41.2598C163.935 41.445 163.856 41.6171 163.683 41.7758C163.511 41.9346 163.272 42.014 162.981 42.014C162.715 42.014 162.516 41.9214 162.384 41.7229C162.251 41.5377 162.198 41.3127 162.198 41.0877C162.198 40.8363 162.291 40.5981 162.463 40.3732C162.636 40.1482 162.861 39.9497 163.153 39.7645C163.392 39.6189 163.697 39.4866 164.028 39.3807C164.373 39.2749 164.718 39.2219 165.036 39.2219C165.487 39.2219 165.885 39.2484 166.216 39.3146C166.548 39.3807 166.866 39.513 167.131 39.7115C167.41 39.91 167.622 40.1747 167.755 40.5187C167.901 40.8628 167.967 41.2995 167.967 41.842C167.967 42.6095 167.967 43.2976 167.94 43.8931C167.927 44.4886 167.914 45.137 167.914 45.8383C167.914 46.05 167.954 46.2221 168.02 46.3412C168.086 46.4602 168.206 46.5661 168.351 46.6587C168.431 46.7117 168.564 46.7381 168.736 46.7381C168.908 46.7381 169.094 46.7381 169.28 46.7381V47.2542L169.266 47.2807ZM166.442 43.0197C165.978 43.1521 165.58 43.2844 165.235 43.4167C164.89 43.549 164.572 43.7078 164.267 43.9063C164.002 44.0916 163.79 44.3033 163.63 44.5547C163.471 44.8061 163.392 45.0973 163.392 45.4546C163.392 45.9045 163.511 46.2353 163.75 46.447C163.988 46.6587 164.28 46.7646 164.638 46.7646C165.023 46.7646 165.354 46.672 165.646 46.4867C165.938 46.3015 166.19 46.0765 166.389 45.8251L166.442 43.033V43.0197Z" fill="black"/>
<path d="M173.51 47.638C172.356 47.638 171.454 47.2542 170.805 46.4867C170.155 45.7192 169.823 44.7003 169.823 43.4167C169.823 42.8609 169.916 42.3316 170.088 41.842C170.261 41.3524 170.513 40.9157 170.858 40.5187C171.176 40.135 171.574 39.8306 172.051 39.5924C172.529 39.3542 173.059 39.2352 173.616 39.2352C174.398 39.2352 175.035 39.4204 175.526 39.7909C176.016 40.1614 176.268 40.6775 176.268 41.3259C176.268 41.5906 176.202 41.8288 176.069 42.0405C175.937 42.2522 175.724 42.3449 175.433 42.3449C175.114 42.3449 174.863 42.2655 174.69 42.1067C174.518 41.9479 174.425 41.7626 174.425 41.5641C174.425 41.3259 174.451 41.0745 174.518 40.8231C174.584 40.5717 174.624 40.3864 174.637 40.2673C174.544 40.1085 174.398 39.9894 174.199 39.9365C174.014 39.8836 173.802 39.8571 173.576 39.8571C173.324 39.8571 173.072 39.91 172.834 40.0159C172.595 40.1217 172.369 40.3335 172.157 40.6246C171.958 40.9025 171.799 41.2598 171.667 41.7097C171.547 42.1728 171.481 42.7154 171.481 43.3505C171.481 44.3562 171.706 45.1634 172.144 45.7986C172.582 46.4338 173.165 46.7514 173.894 46.7514C174.412 46.7514 174.849 46.619 175.207 46.3676C175.565 46.1162 175.884 45.7324 176.189 45.2164L176.706 45.5604C176.348 46.1956 175.884 46.6984 175.3 47.069C174.717 47.4395 174.12 47.6247 173.497 47.6247L173.51 47.638ZM176.096 35.2256L174.16 38.0574C174.067 38.1765 173.987 38.2559 173.921 38.3089C173.855 38.3618 173.709 38.3883 173.47 38.3883C173.231 38.3883 173.072 38.3618 172.993 38.2956C172.913 38.2427 172.834 38.1368 172.741 38.0177L170.818 35.2124L171.202 34.9477L173.43 37.1576L175.685 34.9477L176.069 35.2124L176.096 35.2256Z" fill="black"/>
<path d="M186.135 47.4262H182.236V46.8969C182.355 46.8969 182.501 46.8704 182.647 46.8704C182.793 46.8704 182.925 46.8307 183.018 46.8043C183.164 46.7514 183.283 46.672 183.35 46.5529C183.416 46.4338 183.456 46.275 183.456 46.0765V41.9743C183.456 41.4053 183.323 40.9686 183.058 40.6643C182.793 40.3599 182.461 40.2011 182.077 40.2011C181.785 40.2011 181.533 40.2408 181.294 40.3335C181.056 40.4261 180.843 40.532 180.658 40.6643C180.485 40.7834 180.339 40.9289 180.233 41.0613C180.127 41.2068 180.048 41.3127 180.008 41.4053V45.9839C180.008 46.1691 180.048 46.3147 180.114 46.4338C180.194 46.5529 180.3 46.6455 180.459 46.7117C180.565 46.7646 180.698 46.8043 180.83 46.8307C180.963 46.8572 181.095 46.8704 181.241 46.8837V47.413H177.329V46.8837C177.449 46.8837 177.581 46.8572 177.714 46.8572C177.846 46.8572 177.966 46.8175 178.059 46.7911C178.204 46.7381 178.324 46.6587 178.39 46.5396C178.456 46.4205 178.496 46.2617 178.496 46.0633V41.1539C178.496 40.9686 178.456 40.7966 178.377 40.651C178.297 40.4923 178.191 40.3732 178.045 40.2805C177.939 40.2144 177.82 40.1747 177.687 40.135C177.541 40.1085 177.395 40.082 177.236 40.082V39.5527L179.889 39.3807L180.008 39.4998V40.6246H180.048C180.18 40.4923 180.339 40.3467 180.538 40.1614C180.737 39.9894 180.923 39.8306 181.095 39.7248C181.294 39.5924 181.533 39.4866 181.811 39.4072C182.09 39.3278 182.395 39.2748 182.74 39.2748C183.509 39.2748 184.079 39.513 184.437 39.9894C184.808 40.4658 184.994 41.101 184.994 41.8949V46.0368C184.994 46.222 185.034 46.3808 185.087 46.4867C185.153 46.6058 185.259 46.6984 185.419 46.7646C185.551 46.8175 185.657 46.8572 185.75 46.8837C185.843 46.9101 185.975 46.9234 186.148 46.9366V47.4659L186.135 47.4262Z" fill="black"/>
<path d="M191.054 47.4262H187.195V46.8969C187.314 46.8969 187.447 46.8705 187.579 46.8705C187.712 46.8705 187.831 46.8308 187.924 46.8043C188.07 46.7514 188.19 46.672 188.256 46.5529C188.335 46.4338 188.362 46.275 188.362 46.0765V41.1671C188.362 40.9951 188.322 40.8363 188.243 40.6908C188.163 40.5452 188.057 40.4261 187.911 40.3335C187.805 40.2673 187.659 40.2144 187.46 40.1747C187.261 40.1218 187.089 40.0953 186.93 40.0953V39.566L189.741 39.3939L189.847 39.513V46.0103C189.847 46.1956 189.887 46.3544 189.953 46.4735C190.02 46.5926 190.139 46.6852 190.298 46.7514C190.417 46.8043 190.537 46.844 190.643 46.8705C190.749 46.8969 190.882 46.9234 191.027 46.9234V47.4527L191.054 47.4262ZM190.749 35.6358C190.749 35.8343 190.696 36.0064 190.603 36.1387C190.51 36.271 190.364 36.4033 190.192 36.5489C189.927 36.7606 189.569 37.0385 189.131 37.3693C188.693 37.7002 188.229 38.0707 187.725 38.4544L187.42 38.1898C187.911 37.4752 188.243 36.9724 188.441 36.6812C188.627 36.3901 188.839 36.0593 189.065 35.702C189.237 35.4241 189.396 35.2389 189.555 35.1462C189.715 35.0536 189.887 35.0007 190.099 35.0007C190.298 35.0007 190.457 35.0668 190.577 35.1992C190.696 35.3315 190.762 35.4771 190.762 35.6358H190.749Z" fill="black"/>
<path d="M201.968 35.8873C201.968 36.1254 201.902 36.3372 201.769 36.496C201.637 36.6548 201.438 36.7474 201.173 36.7474C201 36.7474 200.854 36.7077 200.735 36.6415C200.602 36.5754 200.496 36.4827 200.377 36.3636C200.271 36.2445 200.165 36.1122 200.072 35.9534C199.979 35.8079 199.9 35.6755 199.833 35.5961C199.475 35.6094 199.197 35.8608 198.998 36.3504C198.799 36.84 198.706 37.6075 198.706 38.6794V39.4998H200.762V40.2805H198.706V45.9971C198.706 46.1823 198.746 46.3411 198.812 46.4602C198.878 46.5793 198.998 46.672 199.157 46.7249C199.29 46.7778 199.462 46.8175 199.674 46.844C199.886 46.8705 200.072 46.8969 200.231 46.8969V47.4262H196.027V46.8969C196.147 46.8969 196.279 46.8704 196.412 46.8704C196.545 46.8704 196.664 46.8307 196.757 46.8043C196.903 46.7514 197.022 46.672 197.088 46.5529C197.168 46.4338 197.194 46.275 197.194 46.0765V40.2805H195.616V39.4998H197.194V38.997C197.194 37.7928 197.513 36.8135 198.136 36.0593C198.759 35.305 199.555 34.9345 200.496 34.9345C200.974 34.9345 201.332 35.0271 201.584 35.2124C201.822 35.3976 201.955 35.6226 201.955 35.9005L201.968 35.8873Z" fill="black"/>
<path d="M208.944 43.3638C208.944 43.9196 208.851 44.4753 208.678 45.0179C208.506 45.5604 208.241 46.0236 207.922 46.3941C207.551 46.8175 207.113 47.1483 206.623 47.3601C206.132 47.5718 205.575 47.6777 204.965 47.6777C204.461 47.6777 203.971 47.585 203.52 47.3865C203.056 47.2013 202.658 46.9234 202.3 46.5529C201.955 46.1956 201.663 45.7457 201.464 45.2296C201.252 44.7135 201.159 44.1313 201.159 43.4829C201.159 42.239 201.517 41.2201 202.247 40.4261C202.976 39.6321 203.931 39.2352 205.098 39.2352C206.265 39.2352 207.14 39.6057 207.869 40.3599C208.599 41.1142 208.957 42.1067 208.957 43.3638H208.944ZM207.273 43.377C207.273 42.98 207.233 42.5433 207.153 42.0934C207.074 41.6435 206.954 41.2598 206.782 40.9554C206.61 40.6246 206.384 40.3599 206.106 40.1482C205.827 39.9497 205.482 39.8439 205.071 39.8439C204.66 39.8439 204.302 39.9497 204.01 40.1482C203.719 40.3467 203.48 40.6378 203.294 40.9819C203.122 41.3127 203.002 41.6832 202.936 42.1067C202.87 42.5301 202.83 42.9271 202.83 43.3241C202.83 43.8402 202.87 44.3165 202.949 44.7532C203.029 45.1899 203.162 45.5869 203.347 45.9309C203.533 46.275 203.758 46.5396 204.037 46.7381C204.315 46.9366 204.66 47.0293 205.071 47.0293C205.748 47.0293 206.278 46.6984 206.676 46.05C207.074 45.4016 207.273 44.5018 207.273 43.3505V43.377Z" fill="black"/>
<path d="M218.611 47.4262H214.712V46.8969C214.832 46.8969 214.978 46.8704 215.123 46.8704C215.269 46.8704 215.402 46.8307 215.495 46.8043C215.641 46.7514 215.76 46.672 215.826 46.5529C215.893 46.4338 215.932 46.275 215.932 46.0765V41.9743C215.932 41.4053 215.8 40.9686 215.535 40.6643C215.269 40.3599 214.938 40.2011 214.553 40.2011C214.261 40.2011 214.01 40.2408 213.771 40.3335C213.532 40.4261 213.32 40.532 213.134 40.6643C212.962 40.7834 212.816 40.9289 212.71 41.0613C212.604 41.2068 212.524 41.3127 212.484 41.4053V45.9839C212.484 46.1691 212.524 46.3147 212.591 46.4338C212.67 46.5529 212.776 46.6455 212.935 46.7117C213.041 46.7646 213.174 46.8043 213.307 46.8307C213.439 46.8572 213.572 46.8704 213.718 46.8837V47.413H209.806V46.8837C209.925 46.8837 210.058 46.8572 210.19 46.8572C210.323 46.8572 210.442 46.8175 210.535 46.7911C210.681 46.7381 210.8 46.6587 210.867 46.5396C210.933 46.4205 210.973 46.2617 210.973 46.0633V41.1539C210.973 40.9686 210.933 40.7966 210.853 40.651C210.774 40.4923 210.668 40.3732 210.522 40.2805C210.416 40.2144 210.296 40.1747 210.164 40.135C210.018 40.1085 209.872 40.082 209.713 40.082V39.5527L212.365 39.3807L212.484 39.4998V40.6246H212.524C212.657 40.4923 212.816 40.3467 213.015 40.1614C213.214 39.9894 213.399 39.8306 213.559 39.7248C213.758 39.5924 213.996 39.4866 214.275 39.4072C214.553 39.3278 214.858 39.2748 215.203 39.2748C215.972 39.2748 216.542 39.513 216.9 39.9894C217.272 40.4658 217.457 41.101 217.457 41.8949V46.0368C217.457 46.222 217.497 46.3808 217.55 46.4867C217.617 46.6058 217.723 46.6984 217.882 46.7646C218.014 46.8175 218.121 46.8572 218.213 46.8837C218.306 46.9101 218.439 46.9234 218.611 46.9366V47.4659V47.4262Z" fill="black"/>
<path d="M228 47.2807L225.202 47.4527L225.082 47.3336V46.5926H225.016C224.738 46.8837 224.393 47.1483 223.982 47.3468C223.571 47.5453 223.146 47.638 222.709 47.638C222.271 47.638 221.82 47.5321 221.396 47.3336C220.971 47.1351 220.6 46.844 220.295 46.4867C219.977 46.1162 219.725 45.6663 219.539 45.1502C219.354 44.6209 219.261 44.0519 219.261 43.4167C219.261 42.8345 219.367 42.2919 219.566 41.7758C219.765 41.2598 220.043 40.8099 220.388 40.4129C220.719 40.0556 221.117 39.7645 221.595 39.5527C222.072 39.341 222.563 39.2351 223.053 39.2351C223.425 39.2351 223.796 39.2881 224.154 39.3807C224.512 39.4733 224.817 39.5924 225.082 39.738V36.9591C225.082 36.7342 225.043 36.5224 224.963 36.3372C224.884 36.1519 224.777 36.0064 224.645 35.9137C224.499 35.8079 224.287 35.7417 224.035 35.6888C223.783 35.6358 223.504 35.6094 223.213 35.5829V35.0801L226.488 34.908L226.607 35.0271V45.7589C226.607 45.9442 226.647 46.103 226.714 46.2353C226.78 46.3676 226.886 46.4735 227.032 46.5661C227.138 46.6323 227.284 46.672 227.483 46.6852C227.682 46.6984 227.854 46.7117 228.013 46.7117V47.241L228 47.2807ZM225.069 45.8912V41.2333C225.029 41.0877 224.95 40.9422 224.857 40.7834C224.764 40.6246 224.645 40.479 224.499 40.3335C224.34 40.2011 224.154 40.082 223.942 40.0026C223.73 39.91 223.491 39.8703 223.213 39.8703C222.894 39.8703 222.589 39.9497 222.324 40.1217C222.059 40.2938 221.807 40.532 221.608 40.8363C221.409 41.1407 221.25 41.5244 221.131 41.9876C221.011 42.4507 220.958 42.9668 220.958 43.5358C220.958 43.9857 220.998 44.3959 221.091 44.7664C221.184 45.137 221.316 45.481 221.528 45.7986C221.714 46.103 221.953 46.3411 222.245 46.5264C222.536 46.7117 222.881 46.8043 223.292 46.8043C223.73 46.8043 224.075 46.7117 224.366 46.5264C224.645 46.3411 224.883 46.1294 225.082 45.9045L225.069 45.8912Z" fill="black"/>
<path d="M140.317 65.2905H136.418V64.7611C136.538 64.7611 136.684 64.7347 136.83 64.7347C136.975 64.7347 137.108 64.695 137.201 64.6685C137.347 64.6156 137.466 64.5362 137.532 64.4171C137.599 64.298 137.638 64.1392 137.638 63.9407V59.8386C137.638 59.2696 137.506 58.8329 137.241 58.5285C136.975 58.2242 136.644 58.0654 136.259 58.0654C135.968 58.0654 135.716 58.1051 135.477 58.1977C135.238 58.2903 135.026 58.3962 134.84 58.5285C134.668 58.6476 134.522 58.7932 134.416 58.9255C134.31 59.0711 134.23 59.1769 134.191 59.2696V63.8481C134.191 64.0333 134.23 64.1789 134.297 64.298C134.376 64.4171 134.482 64.5097 134.641 64.5759C134.748 64.6288 134.88 64.6685 135.013 64.695C135.145 64.7214 135.278 64.7347 135.424 64.7479V65.2772H131.512V64.7479C131.631 64.7479 131.764 64.7214 131.896 64.7214C132.029 64.7214 132.148 64.6818 132.241 64.6553C132.387 64.6024 132.506 64.523 132.573 64.4039C132.639 64.2848 132.679 64.126 132.679 63.9275V59.0181C132.679 58.8329 132.639 58.6608 132.559 58.5153C132.48 58.3565 132.374 58.2374 132.228 58.1448C132.122 58.0786 132.002 58.0389 131.87 57.9992C131.724 57.9727 131.578 57.9463 131.419 57.9463V57.417L134.071 57.2449L134.191 57.364V58.4888H134.23C134.363 58.3565 134.522 58.2109 134.721 58.0257C134.92 57.8536 135.106 57.6949 135.278 57.589C135.477 57.4567 135.716 57.3508 135.994 57.2714C136.273 57.192 136.578 57.1391 136.922 57.1391C137.692 57.1391 138.262 57.3773 138.62 57.8536C138.991 58.33 139.177 58.9652 139.177 59.7592V63.901C139.177 64.0863 139.217 64.2451 139.27 64.3509C139.336 64.47 139.442 64.5627 139.601 64.6288C139.734 64.6818 139.84 64.7214 139.933 64.7479C140.025 64.7744 140.158 64.7876 140.33 64.8008V65.3302L140.317 65.2905Z" fill="black"/>
<path d="M148.062 63.4114C147.73 64.0466 147.28 64.5494 146.723 64.9332C146.166 65.3169 145.516 65.5022 144.786 65.5022C144.15 65.5022 143.58 65.3831 143.102 65.1581C142.625 64.9332 142.227 64.6288 141.909 64.2318C141.59 63.8481 141.365 63.3982 141.206 62.8689C141.047 62.3396 140.98 61.8102 140.98 61.228C140.98 60.7119 141.06 60.2091 141.232 59.7062C141.392 59.2034 141.644 58.7667 141.962 58.3565C142.267 57.9727 142.651 57.6684 143.102 57.4302C143.553 57.192 144.07 57.0729 144.641 57.0729C145.211 57.0729 145.728 57.1655 146.139 57.3508C146.55 57.5361 146.895 57.7875 147.147 58.1051C147.399 58.4094 147.585 58.7667 147.704 59.1637C147.823 59.5739 147.89 60.0106 147.89 60.5002V61.0295H142.598C142.598 61.5588 142.651 62.022 142.744 62.4586C142.85 62.8821 142.996 63.2658 143.222 63.5834C143.434 63.901 143.712 64.1392 144.044 64.3245C144.389 64.5097 144.786 64.6024 145.264 64.6024C145.741 64.6024 146.152 64.4965 146.51 64.2715C146.855 64.0466 147.2 63.6364 147.518 63.0541L148.088 63.3982L148.062 63.4114ZM146.272 60.3811C146.272 60.0768 146.245 59.7592 146.192 59.4151C146.139 59.0711 146.06 58.7799 145.94 58.555C145.821 58.3036 145.648 58.1051 145.436 57.9463C145.224 57.7875 144.946 57.7081 144.601 57.7081C144.031 57.7081 143.566 57.9463 143.195 58.4094C142.824 58.8858 142.612 59.5342 142.585 60.3679H146.272V60.3811Z" fill="black"/>
<path d="M155.276 65.2905H148.817V64.867L153.339 57.986H152.226C151.761 57.986 151.39 57.986 151.125 58.0124C150.86 58.0257 150.621 58.0786 150.395 58.1712C150.25 58.2374 150.104 58.3962 149.971 58.6741C149.838 58.952 149.719 59.3225 149.626 59.7724H149.136V57.3243H155.236V57.6552L150.647 64.6288C150.846 64.6288 151.059 64.6288 151.284 64.6288C151.509 64.6288 151.761 64.6288 152.04 64.6288C152.252 64.6288 152.477 64.6288 152.716 64.6288C152.955 64.6288 153.247 64.6024 153.618 64.5891C153.83 64.5891 154.003 64.5097 154.109 64.3774C154.215 64.2451 154.308 64.0863 154.361 63.9142C154.414 63.7555 154.493 63.5437 154.573 63.2658C154.652 62.988 154.732 62.7233 154.798 62.4586H155.289V65.264L155.276 65.2905Z" fill="black"/>
<path d="M163.895 65.1449C163.643 65.2375 163.418 65.3037 163.232 65.3699C163.047 65.4228 162.821 65.4493 162.582 65.4493C162.158 65.4493 161.827 65.3566 161.575 65.1581C161.323 64.9596 161.164 64.6685 161.097 64.298H161.044C160.699 64.6818 160.315 64.9861 159.917 65.1846C159.519 65.3831 159.028 65.489 158.472 65.489C157.875 65.489 157.384 65.3037 157 64.9332C156.615 64.5627 156.416 64.0863 156.416 63.4908C156.416 63.1865 156.456 62.9086 156.549 62.6704C156.641 62.4322 156.761 62.2072 156.933 62.022C157.066 61.8632 157.251 61.7176 157.464 61.5853C157.689 61.453 157.888 61.3603 158.087 61.2809C158.326 61.1883 158.816 61.0163 159.559 60.7781C160.302 60.5399 160.805 60.3414 161.057 60.1959V59.4019C161.057 59.3357 161.044 59.1902 161.018 58.9917C160.991 58.7932 160.925 58.6079 160.832 58.4227C160.726 58.2242 160.567 58.0521 160.381 57.9066C160.182 57.761 159.904 57.6816 159.546 57.6816C159.294 57.6816 159.068 57.7213 158.856 57.8007C158.644 57.8801 158.498 57.9727 158.405 58.0654C158.405 58.1712 158.432 58.33 158.485 58.5418C158.538 58.7535 158.564 58.952 158.564 59.124C158.564 59.3093 158.485 59.4813 158.312 59.6401C158.14 59.7989 157.901 59.8783 157.61 59.8783C157.344 59.8783 157.145 59.7856 157.013 59.5871C156.88 59.4019 156.827 59.1769 156.827 58.952C156.827 58.7005 156.92 58.4624 157.092 58.2374C157.265 58.0124 157.49 57.814 157.782 57.6287C158.021 57.4831 158.326 57.3508 158.657 57.2449C159.002 57.1391 159.347 57.0861 159.665 57.0861C160.116 57.0861 160.514 57.1126 160.845 57.1788C161.177 57.2449 161.495 57.3773 161.76 57.5758C162.039 57.7743 162.251 58.0389 162.384 58.383C162.529 58.727 162.596 59.1637 162.596 59.7062C162.596 60.4737 162.596 61.1618 162.569 61.7573C162.543 62.3528 162.543 63.0012 162.543 63.7025C162.543 63.9143 162.582 64.0863 162.649 64.2054C162.715 64.3245 162.834 64.4303 162.98 64.523C163.06 64.5759 163.193 64.6024 163.365 64.6024C163.537 64.6024 163.723 64.6024 163.909 64.6024V65.1184L163.895 65.1449ZM161.071 60.884C160.607 61.0163 160.209 61.1486 159.864 61.2809C159.519 61.4133 159.201 61.5721 158.896 61.7705C158.631 61.9558 158.418 62.1675 158.259 62.419C158.1 62.6704 158.021 62.9615 158.021 63.3188C158.021 63.7687 158.14 64.0995 158.379 64.3112C158.617 64.523 158.909 64.6288 159.267 64.6288C159.652 64.6288 159.983 64.5362 160.275 64.3509C160.567 64.1657 160.819 63.9407 161.018 63.6893L161.071 60.8972V60.884ZM161.721 53.5001C161.721 53.6986 161.667 53.8706 161.575 54.0029C161.482 54.1352 161.336 54.2676 161.164 54.4131C160.898 54.6249 160.54 54.9027 160.103 55.2336C159.665 55.5644 159.201 55.9349 158.697 56.3187L158.392 56.054C158.883 55.3394 159.214 54.8366 159.413 54.5455C159.599 54.2543 159.811 53.9235 160.036 53.5662C160.209 53.2883 160.368 53.1031 160.527 53.0105C160.686 52.9178 160.859 52.8649 161.071 52.8649C161.27 52.8649 161.429 52.9311 161.548 53.0634C161.667 53.1957 161.734 53.3413 161.734 53.5001H161.721Z" fill="black"/>
<path d="M172.29 57.8139C172.051 57.8536 171.812 57.9463 171.6 58.0786C171.375 58.2109 171.189 58.4491 171.043 58.7799C170.725 59.4945 170.393 60.2488 170.049 61.0427C169.704 61.8235 169.359 62.6439 168.988 63.5173C168.882 63.7687 168.762 64.0598 168.643 64.4039C168.524 64.7479 168.404 65.0655 168.311 65.3831H167.675C167.158 64.1127 166.693 62.9615 166.256 61.9161C165.818 60.8707 165.381 59.8121 164.916 58.7138C164.81 58.4624 164.638 58.2771 164.399 58.1315C164.161 57.9992 163.922 57.9066 163.67 57.8669V57.3376H167.37V57.9066C167.211 57.9066 167.012 57.9463 166.76 58.0124C166.521 58.0786 166.402 58.158 166.402 58.2639C166.402 58.2771 166.415 58.3168 166.442 58.3962C166.468 58.4624 166.495 58.5417 166.521 58.6211C166.747 59.1637 167.052 59.9312 167.463 60.9236C167.86 61.9029 168.192 62.6968 168.444 63.3055C168.643 62.8424 168.882 62.2734 169.173 61.5853C169.465 60.8972 169.783 60.1297 170.128 59.2828C170.181 59.1372 170.234 59.0049 170.287 58.8726C170.34 58.7402 170.367 58.6211 170.367 58.4888C170.367 58.3962 170.327 58.3168 170.234 58.2374C170.141 58.1712 170.035 58.1051 169.916 58.0521C169.797 57.9992 169.664 57.9595 169.545 57.933C169.425 57.9066 169.332 57.8933 169.253 57.8801V57.364H172.303V57.8536L172.29 57.8139Z" fill="black"/>
<path d="M177.025 65.2905H173.166V64.7611C173.285 64.7611 173.418 64.7347 173.55 64.7347C173.683 64.7347 173.802 64.695 173.895 64.6685C174.041 64.6156 174.16 64.5362 174.227 64.4171C174.306 64.298 174.333 64.1392 174.333 63.9407V59.0314C174.333 58.8593 174.293 58.7005 174.213 58.555C174.134 58.4094 174.028 58.2903 173.882 58.1977C173.776 58.1315 173.63 58.0786 173.431 58.0389C173.232 57.986 173.06 57.9595 172.9 57.9595V57.4302L175.712 57.2582L175.818 57.3773V63.8746C175.818 64.0598 175.858 64.2186 175.924 64.3377C175.99 64.4568 176.11 64.5494 176.269 64.6156C176.388 64.6685 176.507 64.7082 176.614 64.7347C176.72 64.7611 176.852 64.7876 176.998 64.7876V65.3169L177.025 65.2905ZM176.017 54.0823C176.017 54.3867 175.911 54.6646 175.712 54.8895C175.513 55.1145 175.261 55.2336 174.969 55.2336C174.691 55.2336 174.452 55.1277 174.253 54.9027C174.054 54.691 173.948 54.4396 173.948 54.1617C173.948 53.8838 174.054 53.6059 174.253 53.381C174.452 53.156 174.691 53.0502 174.969 53.0502C175.274 53.0502 175.526 53.156 175.725 53.3677C175.924 53.5795 176.017 53.8177 176.017 54.0823Z" fill="black"/>
<path d="M183.323 61.3868C183.548 61.5853 183.707 61.8102 183.827 62.0617C183.946 62.3131 183.999 62.6174 183.999 62.988C183.999 63.729 183.721 64.3245 183.164 64.8008C182.607 65.264 181.891 65.5022 181.015 65.5022C180.551 65.5022 180.127 65.4228 179.729 65.2508C179.345 65.0787 179.066 64.9332 178.894 64.7876L178.735 65.3169H178.125L178.045 62.5513H178.602C178.642 62.763 178.735 63.0144 178.88 63.2923C179.026 63.5702 179.185 63.8216 179.384 64.0466C179.596 64.2848 179.848 64.4833 180.14 64.6421C180.432 64.8008 180.763 64.8802 181.135 64.8802C181.652 64.8802 182.05 64.7611 182.328 64.523C182.607 64.2848 182.753 63.954 182.753 63.504C182.753 63.2791 182.713 63.0806 182.62 62.9218C182.527 62.763 182.395 62.6174 182.222 62.4851C182.05 62.366 181.824 62.2469 181.559 62.1543C181.294 62.0484 181.015 61.9558 180.697 61.8632C180.445 61.7838 180.167 61.6911 179.848 61.5456C179.543 61.4133 179.278 61.2677 179.053 61.0824C178.814 60.8972 178.615 60.659 178.469 60.3811C178.323 60.1032 178.244 59.7856 178.244 59.4151C178.244 58.7667 178.483 58.2109 178.973 57.761C179.464 57.3111 180.114 57.0861 180.923 57.0861C181.241 57.0861 181.559 57.1258 181.877 57.2052C182.209 57.2846 182.474 57.3773 182.673 57.4964L182.859 57.0729H183.442L183.562 59.6268H183.005C182.885 59.0578 182.647 58.5814 182.275 58.2242C181.904 57.8669 181.44 57.6816 180.909 57.6816C180.472 57.6816 180.114 57.7875 179.862 58.0124C179.61 58.2374 179.477 58.5021 179.477 58.8196C179.477 59.0578 179.517 59.2696 179.596 59.4283C179.676 59.5871 179.809 59.7327 179.968 59.8386C180.127 59.9444 180.339 60.0503 180.578 60.1429C180.83 60.2355 181.122 60.3414 181.493 60.4605C181.851 60.5796 182.182 60.7119 182.501 60.8575C182.819 61.003 183.071 61.1751 183.283 61.3603L183.323 61.3868Z" fill="black"/>
<path d="M188.76 65.2905H184.861V64.7611C184.981 64.7611 185.113 64.7347 185.259 64.7215C185.405 64.7215 185.511 64.6818 185.604 64.6685C185.75 64.6156 185.869 64.5362 185.949 64.4171C186.028 64.298 186.055 64.1392 186.055 63.9407V54.7175C186.055 54.519 186.015 54.347 185.935 54.1749C185.856 54.0029 185.737 53.8706 185.604 53.778C185.511 53.7118 185.325 53.6589 185.073 53.6059C184.808 53.553 184.609 53.5265 184.45 53.5133V52.9972L187.447 52.8252L187.567 52.9443V63.8746C187.567 64.0598 187.606 64.2186 187.673 64.3377C187.739 64.4568 187.858 64.5494 188.017 64.6156C188.137 64.6685 188.256 64.7082 188.376 64.7347C188.495 64.7611 188.627 64.7744 188.773 64.7876V65.3169L188.76 65.2905Z" fill="black"/>
<path d="M196.518 63.4114C196.186 64.0466 195.736 64.5494 195.179 64.9332C194.622 65.3169 193.972 65.5022 193.242 65.5022C192.606 65.5022 192.036 65.3831 191.558 65.1581C191.081 64.9332 190.67 64.6288 190.365 64.2318C190.047 63.8481 189.821 63.3982 189.662 62.8689C189.503 62.3528 189.437 61.8102 189.437 61.228C189.437 60.7119 189.516 60.2091 189.688 59.7062C189.848 59.2034 190.1 58.7667 190.418 58.3565C190.723 57.9727 191.107 57.6684 191.558 57.4302C192.009 57.192 192.526 57.0729 193.097 57.0729C193.667 57.0729 194.184 57.1655 194.595 57.3508C195.006 57.5361 195.351 57.7875 195.603 58.1051C195.855 58.4094 196.041 58.7667 196.16 59.1637C196.279 59.5739 196.346 60.0106 196.346 60.5002V61.0295H191.054C191.054 61.5588 191.107 62.022 191.2 62.4587C191.306 62.8821 191.452 63.2658 191.678 63.5834C191.89 63.901 192.168 64.1392 192.5 64.3245C192.845 64.5097 193.242 64.6024 193.72 64.6024C194.197 64.6024 194.608 64.4965 194.966 64.2715C195.311 64.0466 195.656 63.6364 195.974 63.0541L196.545 63.3982L196.518 63.4114ZM194.728 60.3811C194.728 60.0768 194.701 59.7592 194.648 59.4151C194.595 59.0711 194.516 58.7799 194.396 58.555C194.277 58.3036 194.104 58.1051 193.892 57.9463C193.68 57.7875 193.402 57.7081 193.057 57.7081C192.487 57.7081 192.022 57.9463 191.651 58.4094C191.28 58.8858 191.068 59.5342 191.041 60.3679H194.728V60.3811ZM195.006 53.5001C195.006 53.6986 194.953 53.8706 194.86 54.0029C194.768 54.1352 194.622 54.2676 194.449 54.4131C194.184 54.6249 193.826 54.9027 193.388 55.2336C192.951 55.5644 192.487 55.9349 191.983 56.3187L191.678 56.054C192.168 55.3394 192.5 54.8366 192.699 54.5455C192.884 54.2543 193.097 53.9235 193.322 53.5662C193.494 53.2883 193.654 53.1031 193.813 53.0105C193.972 52.9178 194.144 52.8649 194.356 52.8649C194.569 52.8649 194.714 52.9311 194.834 53.0634C194.953 53.1957 195.019 53.3413 195.019 53.5001H195.006Z" fill="black"/>
<path d="M137.863 83.1547H131.405V82.7313L135.927 75.8502H134.813C134.349 75.8502 133.978 75.8502 133.713 75.8767C133.448 75.8899 133.209 75.9428 132.983 76.0355C132.837 76.1016 132.692 76.2604 132.559 76.5383C132.426 76.8162 132.307 77.1867 132.214 77.6366H131.724V75.1886H137.824V75.5194L133.235 82.4931C133.434 82.4931 133.646 82.4931 133.872 82.4931C134.097 82.4931 134.349 82.4931 134.628 82.4931C134.84 82.4931 135.065 82.4931 135.304 82.4931C135.543 82.4931 135.835 82.4666 136.206 82.4534C136.418 82.4534 136.59 82.374 136.697 82.2416C136.803 82.1093 136.895 81.9505 136.948 81.7785C137.002 81.6197 137.081 81.408 137.161 81.1301C137.24 80.8522 137.32 80.5875 137.386 80.3229H137.877V83.1282L137.863 83.1547ZM137.307 70.9541L135.37 73.7859C135.278 73.905 135.198 73.9844 135.132 74.0373C135.065 74.0903 134.919 74.1167 134.681 74.1167C134.442 74.1167 134.283 74.0903 134.203 74.0241C134.124 73.9712 134.044 73.8653 133.951 73.7462L132.029 70.9409L132.413 70.6762L134.641 72.8861L136.895 70.6762L137.28 70.9409L137.307 70.9541Z" fill="black"/>
<path d="M147.677 83.0091L145.078 83.1812L144.958 83.0621V82.0564H144.905C144.773 82.1887 144.627 82.3343 144.468 82.4931C144.309 82.6519 144.123 82.7842 143.911 82.9033C143.672 83.0488 143.433 83.1547 143.208 83.2341C142.982 83.3135 142.664 83.3532 142.253 83.3532C141.55 83.3532 141.006 83.1282 140.635 82.6651C140.264 82.2019 140.078 81.5403 140.078 80.6537V76.8427C140.078 76.6442 140.038 76.4854 139.972 76.3531C139.893 76.2207 139.786 76.1016 139.654 76.009C139.561 75.9428 139.428 75.9031 139.282 75.8634C139.137 75.837 138.977 75.8105 138.818 75.7973V75.268L141.484 75.0695L141.603 75.1886V80.7199C141.603 81.3021 141.736 81.7256 141.988 82.0167C142.253 82.3078 142.558 82.4534 142.916 82.4534C143.208 82.4534 143.473 82.4004 143.712 82.321C143.937 82.2284 144.136 82.1225 144.295 82.0035C144.441 81.8976 144.574 81.7653 144.68 81.6462C144.786 81.5138 144.879 81.408 144.932 81.3021V76.7897C144.932 76.6177 144.892 76.4589 144.812 76.3134C144.733 76.181 144.627 76.0619 144.494 75.9561C144.401 75.8899 144.255 75.8502 144.057 75.837C143.871 75.837 143.645 75.8105 143.407 75.7973V75.268L146.311 75.0695L146.43 75.1886V81.5006C146.43 81.6859 146.47 81.8447 146.55 81.9637C146.629 82.0961 146.735 82.2019 146.868 82.2946C146.961 82.3475 147.08 82.3872 147.213 82.4137C147.345 82.4269 147.491 82.4401 147.664 82.4534V82.9827L147.677 83.0091Z" fill="black"/>
<path d="M154.851 76.2207C154.851 76.4986 154.785 76.7368 154.652 76.9485C154.52 77.1603 154.307 77.2661 154.029 77.2661C153.724 77.2661 153.499 77.1867 153.339 77.0279C153.18 76.8691 153.101 76.6971 153.101 76.5119C153.101 76.3928 153.101 76.2869 153.127 76.1943C153.14 76.1016 153.167 75.9958 153.18 75.9031C152.928 75.9031 152.623 76.009 152.292 76.2075C151.947 76.406 151.669 76.7103 151.43 77.0809V81.7123C151.43 81.8976 151.47 82.0564 151.536 82.1755C151.602 82.2946 151.722 82.3872 151.881 82.4401C152.013 82.4931 152.186 82.5328 152.398 82.5592C152.61 82.5857 152.796 82.5989 152.955 82.6122V83.1415H148.751V82.6122C148.87 82.6122 149.003 82.5857 149.136 82.5857C149.268 82.5857 149.388 82.546 149.48 82.5195C149.626 82.4666 149.746 82.3872 149.812 82.2681C149.878 82.149 149.918 81.9902 149.918 81.7917V76.8824C149.918 76.7236 149.878 76.5516 149.799 76.3928C149.719 76.234 149.613 76.1016 149.467 76.009C149.361 75.9428 149.242 75.9031 149.109 75.8634C148.963 75.837 148.817 75.8105 148.658 75.8105V75.2812L151.31 75.1092L151.43 75.2283V76.3531H151.47C151.801 75.9164 152.172 75.5856 152.584 75.3606C152.995 75.1356 153.366 75.0165 153.711 75.0165C154.056 75.0165 154.321 75.1224 154.546 75.3474C154.758 75.5723 154.864 75.8634 154.864 76.234L154.851 76.2207Z" fill="black"/>
<path d="M164.625 83.1547H160.726V82.6254C160.845 82.6254 160.991 82.5989 161.137 82.5989C161.283 82.5989 161.402 82.5592 161.508 82.5328C161.654 82.4798 161.774 82.4004 161.84 82.2813C161.906 82.1622 161.946 82.0034 161.946 81.805V77.7028C161.946 77.1338 161.813 76.6971 161.548 76.3928C161.283 76.0884 160.951 75.9296 160.567 75.9296C160.275 75.9296 160.023 75.9693 159.784 76.0619C159.546 76.1546 159.334 76.2604 159.148 76.3928C158.976 76.5119 158.83 76.6574 158.724 76.7897C158.618 76.9353 158.538 77.0412 158.498 77.1338V81.7123C158.498 81.8976 158.538 82.0431 158.604 82.1622C158.684 82.2813 158.79 82.374 158.949 82.4401C159.055 82.4931 159.188 82.5328 159.32 82.5592C159.453 82.5857 159.586 82.5989 159.731 82.6122V83.1415H155.819V82.6122C155.939 82.6122 156.071 82.5857 156.204 82.5857C156.337 82.5857 156.456 82.546 156.549 82.5195C156.695 82.4666 156.814 82.3872 156.88 82.2681C156.947 82.149 156.986 81.9902 156.986 81.7917V76.8824C156.986 76.6971 156.947 76.5251 156.867 76.3795C156.787 76.2207 156.681 76.1016 156.535 76.009C156.429 75.9428 156.31 75.9031 156.177 75.8635C156.032 75.837 155.886 75.8105 155.727 75.8105V75.2812L158.379 75.1092L158.498 75.2283V76.3531H158.538C158.671 76.2207 158.83 76.0752 159.029 75.8899C159.228 75.7179 159.413 75.5591 159.572 75.4532C159.771 75.3209 160.01 75.215 160.288 75.1356C160.567 75.0562 160.872 75.0033 161.217 75.0033C161.986 75.0033 162.556 75.2415 162.914 75.7179C163.285 76.1943 163.471 76.8294 163.471 77.6234V81.7653C163.471 81.9505 163.511 82.1093 163.564 82.2152C163.63 82.3343 163.736 82.4269 163.895 82.4931C164.028 82.546 164.134 82.5857 164.227 82.6122C164.32 82.6386 164.452 82.6519 164.625 82.6651V83.1944V83.1547Z" fill="black"/>
<path d="M173.098 83.0091C172.847 83.1018 172.621 83.1679 172.435 83.2341C172.25 83.287 172.024 83.3135 171.786 83.3135C171.361 83.3135 171.03 83.2209 170.778 83.0224C170.526 82.8239 170.367 82.5328 170.3 82.1622H170.247C169.903 82.546 169.518 82.8503 169.12 83.0488C168.722 83.2473 168.232 83.3532 167.675 83.3532C167.078 83.3532 166.587 83.1679 166.203 82.7974C165.818 82.4269 165.619 81.9505 165.619 81.355C165.619 81.0507 165.659 80.7728 165.752 80.5346C165.845 80.2964 165.964 80.0715 166.136 79.8862C166.269 79.7274 166.455 79.5819 166.667 79.4495C166.892 79.3172 167.091 79.2246 167.29 79.1452C167.529 79.0525 168.019 78.8805 168.762 78.6423C169.505 78.3909 170.009 78.2056 170.261 78.0601V77.2661C170.261 77.2 170.247 77.0544 170.221 76.8559C170.194 76.6574 170.128 76.4722 170.035 76.2869C169.929 76.0884 169.77 75.9164 169.584 75.7708C169.385 75.6253 169.107 75.5459 168.749 75.5459C168.497 75.5459 168.271 75.5856 168.059 75.665C167.847 75.7444 167.701 75.837 167.608 75.9296C167.608 76.0355 167.635 76.1943 167.688 76.406C167.741 76.6177 167.767 76.8162 167.767 76.9882C167.767 77.1735 167.688 77.3455 167.515 77.5043C167.343 77.6631 167.104 77.7425 166.813 77.7425C166.547 77.7425 166.349 77.6499 166.216 77.4514C166.083 77.2661 166.03 77.0412 166.03 76.8162C166.03 76.5648 166.123 76.3266 166.295 76.1016C166.468 75.8767 166.693 75.6782 166.985 75.4929C167.224 75.3474 167.529 75.215 167.86 75.1092C168.205 75.0033 168.55 74.9504 168.868 74.9504C169.319 74.9504 169.717 74.9769 170.048 75.043C170.38 75.1092 170.698 75.2415 170.963 75.44C171.242 75.6385 171.454 75.9031 171.587 76.2472C171.733 76.5912 171.799 77.0279 171.799 77.5705C171.799 78.338 171.799 79.0261 171.772 79.6216C171.746 80.217 171.746 80.8654 171.746 81.5668C171.746 81.7785 171.786 81.9505 171.852 82.0696C171.918 82.1887 172.038 82.2946 172.183 82.3872C172.263 82.4401 172.396 82.4666 172.568 82.4666C172.74 82.4666 172.926 82.4666 173.112 82.4666V82.9827L173.098 83.0091ZM170.274 78.7482C169.81 78.8805 169.412 79.0128 169.067 79.1452C168.722 79.2775 168.404 79.4363 168.099 79.6348C167.834 79.82 167.622 80.0318 167.462 80.2832C167.303 80.5346 167.224 80.8257 167.224 81.183C167.224 81.6329 167.343 81.9637 167.582 82.1755C167.821 82.3872 168.112 82.4931 168.47 82.4931C168.855 82.4931 169.186 82.4004 169.478 82.2152C169.77 82.0299 170.022 81.805 170.221 81.5535L170.274 78.7614V78.7482Z" fill="black"/>
<path d="M177.886 83.1547H173.987V82.6254C174.107 82.6254 174.239 82.5989 174.385 82.5857C174.531 82.5857 174.637 82.546 174.73 82.5328C174.876 82.4798 174.995 82.4004 175.075 82.2813C175.154 82.1622 175.181 82.0034 175.181 81.805V72.5817C175.181 72.3832 175.141 72.2112 175.061 72.0392C174.982 71.8671 174.863 71.7348 174.73 71.6422C174.637 71.576 174.451 71.5231 174.199 71.4702C173.934 71.4172 173.735 71.3908 173.576 71.3775V70.8615L176.573 70.6894L176.693 70.8085V81.7388C176.693 81.9241 176.732 82.0828 176.799 82.2019C176.865 82.321 176.984 82.4137 177.143 82.4798C177.263 82.5328 177.382 82.5725 177.501 82.5989C177.621 82.6254 177.753 82.6386 177.899 82.6518V83.1812L177.886 83.1547Z" fill="black"/>
<path d="M182.806 83.1547H178.947V82.6254C179.066 82.6254 179.199 82.5989 179.331 82.5989C179.464 82.5989 179.583 82.5592 179.676 82.5328C179.822 82.4798 179.941 82.4004 180.008 82.2813C180.087 82.1622 180.114 82.0034 180.114 81.805V76.8956C180.114 76.7236 180.074 76.5648 179.994 76.4192C179.915 76.2737 179.809 76.1546 179.663 76.0619C179.557 75.9958 179.411 75.9428 179.212 75.9031C179.013 75.8502 178.841 75.8237 178.682 75.8237V75.2944L181.493 75.1224L181.599 75.2415V81.7388C181.599 81.9241 181.639 82.0828 181.705 82.2019C181.772 82.321 181.891 82.4137 182.05 82.4798C182.169 82.5328 182.289 82.5725 182.395 82.5989C182.501 82.6254 182.633 82.6519 182.779 82.6519V83.1812L182.806 83.1547ZM181.798 71.9465C181.798 72.2509 181.692 72.5288 181.493 72.7537C181.294 72.9787 181.042 73.0978 180.75 73.0978C180.472 73.0978 180.233 72.9919 180.034 72.767C179.835 72.5553 179.729 72.3038 179.729 72.0259C179.729 71.7481 179.835 71.4702 180.034 71.2452C180.233 71.0203 180.472 70.9144 180.75 70.9144C181.055 70.9144 181.307 71.0203 181.506 71.232C181.705 71.4437 181.798 71.6819 181.798 71.9465Z" fill="black"/>
<path d="M189.105 79.251C189.331 79.4495 189.49 79.6745 189.609 79.9259C189.728 80.1773 189.781 80.4817 189.781 80.8522C189.781 81.5932 189.503 82.1887 188.946 82.6651C188.389 83.1282 187.673 83.3664 186.798 83.3664C186.334 83.3664 185.909 83.287 185.511 83.115C185.127 82.943 184.848 82.7974 184.676 82.6519L184.517 83.1812H183.907L183.827 80.4155H184.384C184.424 80.6272 184.517 80.8787 184.663 81.1566C184.808 81.4344 184.968 81.6859 185.167 81.9108C185.379 82.149 185.631 82.3475 185.922 82.5063C186.214 82.6651 186.546 82.7445 186.917 82.7445C187.434 82.7445 187.832 82.6254 188.111 82.3872C188.389 82.149 188.535 81.8182 188.535 81.3683C188.535 81.1433 188.495 80.9448 188.402 80.786C188.309 80.6272 188.177 80.4817 188.004 80.3494C187.832 80.2303 187.607 80.1112 187.341 80.0185C187.076 79.9127 186.798 79.82 186.479 79.7274C186.227 79.648 185.949 79.5554 185.631 79.4098C185.326 79.2775 185.06 79.1319 184.835 78.9467C184.596 78.7614 184.397 78.5232 184.252 78.2453C184.106 77.9675 184.026 77.6499 184.026 77.2794C184.026 76.631 184.265 76.0752 184.755 75.6253C185.246 75.1753 185.896 74.9504 186.705 74.9504C187.023 74.9504 187.341 74.9901 187.66 75.0695C187.991 75.1489 188.256 75.2415 188.455 75.3606L188.641 74.9372H189.224L189.344 77.4911H188.787C188.667 76.9221 188.429 76.4457 188.057 76.0884C187.686 75.7311 187.222 75.5459 186.692 75.5459C186.254 75.5459 185.896 75.6517 185.644 75.8767C185.392 76.1016 185.259 76.3663 185.259 76.6839C185.259 76.9221 185.299 77.1338 185.379 77.2926C185.458 77.4514 185.591 77.5969 185.75 77.7028C185.909 77.8087 186.121 77.9145 186.36 78.0072C186.612 78.0998 186.904 78.2056 187.275 78.3247C187.633 78.4438 187.965 78.5762 188.283 78.7217C188.601 78.8673 188.853 79.0393 189.065 79.2246L189.105 79.251Z" fill="black"/>
<path d="M195.895 82.8107C195.55 82.9562 195.218 83.0753 194.9 83.1812C194.582 83.287 194.197 83.3267 193.746 83.3267C193.083 83.3267 192.606 83.1547 192.327 82.8239C192.049 82.4931 191.916 82.0167 191.916 81.3947V75.9958H190.471V75.215H191.943V72.7405H193.415V75.215H195.709V75.9958H193.441V80.442C193.441 80.7728 193.441 81.0507 193.481 81.2756C193.508 81.5006 193.561 81.6991 193.653 81.8579C193.746 82.0167 193.866 82.1358 194.038 82.2152C194.21 82.2946 194.449 82.3343 194.741 82.3343C194.873 82.3343 195.072 82.3343 195.338 82.2946C195.603 82.2681 195.788 82.2416 195.895 82.2019V82.7974V82.8107Z" fill="black"/>
<path d="M200.761 83.1547H196.902V82.6254C197.021 82.6254 197.154 82.5989 197.287 82.5989C197.419 82.5989 197.538 82.5592 197.631 82.5328C197.777 82.4798 197.897 82.4004 197.963 82.2813C198.042 82.1622 198.069 82.0034 198.069 81.805V76.8956C198.069 76.7236 198.029 76.5648 197.95 76.4192C197.87 76.2737 197.764 76.1546 197.618 76.0619C197.512 75.9958 197.366 75.9428 197.167 75.9031C196.968 75.8502 196.796 75.8237 196.637 75.8237V75.2944L199.448 75.1224L199.554 75.2415V81.7388C199.554 81.9241 199.594 82.0828 199.66 82.2019C199.727 82.321 199.846 82.4137 200.005 82.4798C200.124 82.5328 200.244 82.5725 200.35 82.5989C200.456 82.6254 200.589 82.6519 200.734 82.6519V83.1812L200.761 83.1547ZM199.753 71.9465C199.753 72.2509 199.647 72.5288 199.448 72.7537C199.249 72.9787 198.997 73.0978 198.705 73.0978C198.427 73.0978 198.188 72.9919 197.989 72.767C197.79 72.5553 197.684 72.3038 197.684 72.0259C197.684 71.7481 197.79 71.4702 197.989 71.2452C198.188 71.0203 198.427 70.9144 198.705 70.9144C199.01 70.9144 199.262 71.0203 199.461 71.232C199.66 71.4437 199.753 71.6819 199.753 71.9465Z" fill="black"/>
<path d="M210.362 83.1547H207.949C207.524 82.546 207.074 81.8976 206.596 81.1962C206.119 80.5081 205.615 79.82 205.098 79.1716L204.435 79.7936V81.6859C204.435 81.8844 204.474 82.0431 204.541 82.1622C204.607 82.2946 204.726 82.3872 204.885 82.4401C205.018 82.4931 205.137 82.5328 205.257 82.5592C205.376 82.5857 205.509 82.5989 205.668 82.6122V83.1415H201.756V82.6122C201.875 82.6122 202.008 82.5857 202.14 82.5725C202.273 82.5725 202.392 82.5328 202.472 82.5195C202.618 82.4666 202.737 82.3872 202.803 82.2681C202.883 82.149 202.91 81.9902 202.91 81.7917V72.5288C202.91 72.3303 202.87 72.145 202.79 71.9598C202.711 71.7878 202.591 71.6554 202.459 71.5628C202.339 71.4834 202.167 71.4172 201.928 71.3908C201.69 71.3643 201.491 71.3378 201.345 71.3378V70.8218L204.302 70.6497L204.408 70.7688V79.1981C204.832 78.7747 205.283 78.3247 205.774 77.8484C206.265 77.3587 206.676 76.9353 207.007 76.5648C207.047 76.5119 207.1 76.4457 207.153 76.3795C207.206 76.3001 207.233 76.234 207.233 76.1943C207.233 76.0487 207.113 75.9428 206.875 75.8767C206.636 75.8105 206.411 75.7576 206.198 75.7311V75.215H209.713V75.7179C209.262 75.8502 208.864 76.0222 208.506 76.2207C208.161 76.4192 207.896 76.6045 207.71 76.7633C207.577 76.8691 207.392 77.0412 207.166 77.2926C206.928 77.5308 206.596 77.8484 206.172 78.2453C206.609 78.7879 207.113 79.4363 207.67 80.2038C208.227 80.9713 208.625 81.5138 208.877 81.8579C209.116 82.1755 209.328 82.3872 209.514 82.4798C209.699 82.5725 209.978 82.6386 210.336 82.6519V83.1812L210.362 83.1547Z" fill="black"/>
<path d="M210.588 85.7483C210.588 85.4837 210.668 85.2587 210.814 85.0867C210.959 84.9147 211.145 84.8353 211.371 84.8353C211.543 84.8353 211.689 84.8617 211.821 84.9279C211.941 84.9941 212.06 85.0735 212.153 85.1793C212.232 85.2587 212.325 85.3646 212.418 85.5101C212.511 85.6557 212.577 85.7616 212.63 85.8542C212.896 85.7086 213.227 85.3249 213.598 84.7162C213.97 84.1075 214.248 83.5649 214.407 83.1018C213.89 81.8314 213.426 80.6802 213.015 79.6745C212.604 78.6688 212.166 77.6234 211.715 76.5516C211.609 76.3001 211.437 76.1149 211.198 75.9693C210.959 75.837 210.707 75.7444 210.469 75.7047V75.1753H214.116V75.7444C213.956 75.7444 213.758 75.7841 213.532 75.8502C213.307 75.9164 213.187 75.9825 213.187 76.0619C213.187 76.0884 213.187 76.1413 213.227 76.2207C213.254 76.3001 213.28 76.3795 213.307 76.4589C213.506 76.9882 213.824 77.7557 214.248 78.7614C214.673 79.7671 214.991 80.5743 215.23 81.1698C215.468 80.6008 215.72 80.0053 215.985 79.3834C216.251 78.7614 216.542 78.0336 216.861 77.2C216.9 77.0941 216.953 76.9618 217.02 76.7765C217.086 76.6045 217.126 76.4457 217.126 76.3134C217.126 76.1678 217.007 76.0355 216.755 75.9164C216.516 75.7973 216.277 75.7179 216.052 75.6914V75.1753H219.022V75.6782C218.863 75.7047 218.651 75.7973 218.386 75.9561C218.12 76.1149 217.922 76.3398 217.789 76.6309C217.152 78.113 216.569 79.476 216.078 80.6934C215.574 81.9108 215.203 82.8106 214.938 83.3929C214.593 84.1472 214.288 84.7294 214.023 85.1528C213.758 85.5763 213.492 85.9071 213.24 86.1453C212.988 86.3703 212.763 86.5291 212.564 86.6084C212.365 86.6878 212.153 86.7275 211.941 86.7275C211.516 86.7275 211.185 86.6349 210.946 86.4364C210.707 86.2379 210.588 86.013 210.588 85.7483Z" fill="black"/>
</g>
<defs>
<clipPath id="clip0_49_789">
<rect width="228" height="100" fill="white"/>
</clipPath>
</defs>
</svg>
