<?xml version="1.0" encoding="UTF-8" standalone="no"?>
<svg
   width="698.48779"
   zoomAndPan="magnify"
   viewBox="0 0 523.86584 496.06384"
   height="661.41846"
   preserveAspectRatio="xMidYMid"
   version="1.0"
   id="svg14"
   xmlns="http://www.w3.org/2000/svg"
   xmlns:svg="http://www.w3.org/2000/svg">
  <defs
     id="defs7">
    <clipPath
       id="19210ae868">
      <path
         d="M 367,120.17969 H 657 V 456.01562 H 367 Z m 0,0"
         clip-rule="nonzero"
         id="path5" />
    </clipPath>
    <clipPath
       id="e6a82c154e">
      <path
         d="m 258.49219,360.3125 h 60.97265 v 60.97266 h -60.97265 z m 0,0"
         clip-rule="nonzero"
         id="path6-3" />
    </clipPath>
    <clipPath
       id="38f4bfa110">
      <path
         d="m 288.97656,360.3125 c -16.83594,0 -30.48437,13.64844 -30.48437,30.48437 0,16.83985 13.64843,30.48829 30.48437,30.48829 16.83985,0 30.48828,-13.64844 30.48828,-30.48829 0,-16.83593 -13.64843,-30.48437 -30.48828,-30.48437 z m 0,0"
         clip-rule="nonzero"
         id="path7-9" />
    </clipPath>
  </defs>
  <path
     style="fill:#ff588a;fill-opacity:1;stroke:none;stroke-width:7.47573;stroke-dasharray:none;stroke-opacity:1"
     id="rect15"
     width="413.29385"
     height="410.57495"
     x="770.33679"
     y="193.02826"
     ry="0"
     d="m 830.33679,193.02826 h 293.29381 a 60,60 45 0 1 60,60 v 290.57495 a 60,60 135 0 1 -60,60 H 830.33679 a 60,60 45 0 1 -60,-60 l 0,-290.57495 a 60,60 135 0 1 60,-60 z"
     transform="matrix(1.1005035,0,0,1.1125761,-778.72383,-214.75863)" />
  <g
     clip-path="url(#e6a82c154e)"
     id="g14"
     transform="translate(-258.49219,-246.25788)">
    <g
       clip-path="url(#38f4bfa110)"
       id="g13">
      <path
         fill="#000000"
         d="m 258.49219,360.3125 h 60.97265 v 60.97266 h -60.97265 z m 0,0"
         fill-opacity="1"
         fill-rule="nonzero"
         id="path12" />
    </g>
  </g>
  <path
     style="fill:none;stroke:#000000;stroke-width:7.5;stroke-dasharray:none;stroke-opacity:1"
     id="rect14"
     width="457.67792"
     height="451.33386"
     x="286.38855"
     y="67.97197"
     d="m 346.38855,67.97197 h 337.67792 a 60,60 45 0 1 60,60 v 331.33386 a 60,60 135 0 1 -60,60 H 346.38855 a 60,60 45 0 1 -60,-60 V 127.97197 a 60,60 135 0 1 60,-60 z"
     transform="translate(-255.872,-26.991977)" />
  <g
     clip-path="url(#19210ae868)"
     id="g12"
     transform="translate(-252.44942,-21.29237)">
    <path
       fill="#000000"
       d="m 502.89844,184.69141 c 0.48437,0 0.97656,-0.0664 1.46484,-0.19922 1.85938,-0.52344 3.29688,-1.9961 3.76953,-3.8711 l 13.56641,-53.15234 c 0.48047,-1.87109 -0.082,-3.85547 -1.46094,-5.20703 -1.37891,-1.34766 -3.35937,-1.86719 -5.24219,-1.33594 l -52.77734,14.81641 c -1.85938,0.52734 -3.29688,1.99609 -3.77344,3.875 -0.48047,1.87109 0.082,3.85547 1.46485,5.20703 l 39.21093,38.33203 c 1.01953,0.99609 2.38282,1.53516 3.77735,1.53516 z m 6.00781,-50.82422 -8.92578,35 -25.82422,-25.23828 z m -83.34766,221.93359 c 6.52344,5.07813 17.64844,5.07813 24.17188,0 2.35547,-1.84375 5.74609,-1.41016 7.58203,0.94531 1.83203,2.35938 1.41016,5.75391 -0.94531,7.58985 -5.14844,4.01172 -11.80078,6.21875 -18.72266,6.21875 -6.92578,0 -13.57422,-2.20703 -18.72656,-6.21875 -2.35547,-1.83594 -2.77735,-5.23828 -0.94531,-7.58985 1.83203,-2.35156 5.23828,-2.78906 7.58593,-0.94531 z M 560.03516,306.5625 c 0,7.9375 -3.08985,15.40625 -8.69922,21.01953 l -16.4961,16.51172 c -3.32812,3.32812 -7.7539,5.16406 -12.45703,5.16406 -9.71484,0 -17.61328,-7.90625 -17.61328,-17.63281 v -0.74609 c 0,-2.98829 2.41406,-5.40625 5.40234,-5.40625 2.98829,0 5.40235,2.41796 5.40235,5.40625 v 0.74609 c 0,3.75391 3.05469,6.81641 6.80859,6.81641 1.81641,0 3.52344,-0.71094 4.81641,-1.9961 l 16.49609,-16.51172 c 3.56641,-3.57422 5.53516,-8.32031 5.53516,-13.37109 0,-10.43359 -8.48047,-18.91797 -18.90235,-18.91797 -6.28515,0 -12.14843,3.12109 -15.67578,8.34375 -1.66406,2.47266 -5.03906,3.13281 -7.5,1.45313 -2.47656,-1.66797 -3.125,-5.03516 -1.45703,-7.50391 5.53906,-8.21094 14.75,-13.10938 24.63281,-13.10938 16.37891,0 29.70704,13.33985 29.70704,29.73438 z m -127.73829,-3.42969 c -2.98828,0 -5.40234,-2.41797 -5.40234,-5.41015 v -11.00391 c 0,-2.99219 2.41406,-5.40625 5.40234,-5.40625 2.98829,0 5.40625,2.41406 5.40625,5.40625 v 11.00391 c 0,2.99218 -2.41796,5.41015 -5.40625,5.41015 z M 635.80078,130.375 c -11.59375,0 -21.02344,9.4375 -21.02344,21.03516 0,5.65234 2.26172,10.76171 5.89453,14.54687 l -6.69921,11.07031 -10.79297,-10.80859 c 0.004,-0.22656 0.0664,-0.44922 0.0664,-0.67578 0,-6.40235 -2.49218,-12.41797 -7.01562,-16.9375 -14.03516,-14.05078 -38.77735,-10.71875 -39.82422,-10.57813 -2.37891,0.33594 -4.25391,2.21094 -4.59375,4.59375 -0.14453,1.04688 -3.47656,25.80469 10.57031,39.85938 4.66406,4.66797 10.79688,7.0039 16.92188,7.0039 0.25,0 0.5,-0.0664 0.74609,-0.0703 l 16.49219,16.50391 -13.42578,22.28125 c -1.85938,-0.54297 -3.78516,-0.91797 -5.8086,-0.91797 -3.75,0 -7.22656,1.07031 -10.28125,2.80078 l -16.60937,-16.97656 c 1.86328,-3.14063 3.0039,-6.76172 3.0039,-10.67188 0,-11.60547 -9.42968,-21.03906 -21.02343,-21.03906 -11.59375,0 -21.02344,9.43359 -21.02344,21.03906 0,5.76172 2.33594,10.98438 6.09766,14.78516 l -18.85938,32.11328 H 488.1875 c 7.69141,-11.00391 10.46875,-24.98437 7.11719,-38.32422 -0.0156,-0.0664 0.008,-0.1289 -0.0117,-0.19531 -3.07422,-12.17969 -10.69922,-22.43359 -21.47266,-28.86719 -10.77344,-6.4375 -23.40234,-8.28515 -35.58203,-5.20703 -0.043,0.008 -0.0703,0.043 -0.11328,0.0508 -25.05859,6.39844 -40.29297,31.95703 -33.95703,57.0625 1.4414,5.66797 3.94922,10.83594 7.22265,15.48047 h -11.80078 c -2.71875,0 -5.01562,2.01953 -5.35937,4.71875 -0.80078,6.22656 -1.17969,11.36719 -1.17969,16.15234 v 16.13282 l -22.62891,34.82031 c -2.66015,4.06641 -3.42578,9.07031 -2.09765,13.72656 1.32812,4.66797 4.62109,8.52344 9.03906,10.57813 l 16.25391,7.5664 6.42187,36.70313 c 3.28125,18.66797 19.41016,32.21484 38.34375,32.21484 h 29.77344 c 3.92578,0 7.32812,2.75391 8.11328,6.5586 l 4.80859,23.20312 c 0.53516,2.55469 2.78125,4.30859 5.28907,4.30859 0.36328,0 0.73437,-0.0391 1.10156,-0.11328 2.92578,-0.60547 4.80469,-3.47265 4.19531,-6.39843 l -4.80859,-23.1875 C 485.05078,417.51562 477.1875,411.125 468.15625,411.125 h -29.77344 c -13.67578,0 -25.32812,-9.78906 -27.69531,-23.26953 l -6.91016,-39.48438 c -0.30859,-1.74218 -1.44922,-3.22265 -3.04297,-3.96484 l -18.80468,-8.75781 c -1.59375,-0.7461 -2.73438,-2.07032 -3.20703,-3.73438 -0.47266,-1.66797 -0.20704,-3.3789 0.7539,-4.85156 l 23.51172,-36.17969 c 0.56641,-0.875 0.875,-1.90234 0.875,-2.94922 v -17.73437 c 0,-3.12891 0.17578,-6.34375 0.54688,-10.05469 h 155.53906 c 3.78906,5.55469 10.16015,9.21094 17.36719,9.21094 7.21093,0 13.57421,-3.65625 17.36328,-9.21094 h 32.9375 c -1.01172,22.85156 -8.17188,51.1875 -18.81641,73.83594 -4.23828,8.97656 -9.55859,20.66797 -14.58203,32.05859 -7.15234,16 -9.05859,33.64063 -5.49219,51.00781 l 7.1836,34.66407 c 0.53515,2.55859 2.78515,4.30859 5.29296,4.30859 0.35938,0 0.73438,-0.0352 1.10157,-0.11328 2.92187,-0.60547 4.80468,-3.46875 4.1914,-6.39453 l -7.18359,-34.65625 c -3.10156,-15.125 -1.46094,-30.48047 4.78516,-44.42578 5,-11.33594 10.27343,-22.9375 14.48437,-31.84375 12.12891,-25.80469 19.96484,-58.72266 19.96484,-83.85547 0,-2.99219 -2.41406,-5.40625 -5.40234,-5.40625 h -34.91016 c 0.0156,-0.34375 0.10547,-0.66797 0.10547,-1.01953 0,-5.66016 -2.27734,-10.78907 -5.92578,-14.57422 l 12.01953,-19.9375 11.75782,11.76562 c 3.10937,3.1211 7.21484,4.83985 11.55468,4.83985 4.375,0 8.49219,-1.71094 11.59375,-4.83203 6.33985,-6.34375 6.35547,-16.72657 0,-23.16797 l -17.48047,-17.4961 8.10547,-13.38281 c 1.8711,0.54297 3.8125,0.92969 5.85157,0.92969 11.59375,0 21.02343,-9.4375 21.02343,-21.04297 -0.0156,-11.59375 -9.44531,-21.03125 -21.03906,-21.03125 z m -103.39844,61.82812 c 5.63672,0 10.21875,4.58594 10.21875,10.22657 0,5.63672 -4.58203,10.22265 -10.21875,10.22265 -5.63281,0 -10.21484,-4.58593 -10.21484,-10.22265 0,-5.64063 4.58203,-10.22657 10.21484,-10.22657 z m -64.10937,-0.97265 c 6.72656,4.01562 11.85937,9.97265 14.82031,17.07812 l -29.44141,7.44532 -7.4375,-29.47266 c 7.64063,-0.77344 15.33204,0.92578 22.0586,4.94922 z m -53.63281,39.94922 c -4.42969,-17.5625 4.89062,-35.38672 21.11328,-42.1836 l 8.74218,34.65625 c 0.35157,1.38672 1.23829,2.58203 2.46875,3.3125 0.84375,0.50782 1.80469,0.76953 2.77344,0.76953 0.44141,0 0.88672,-0.0547 1.32422,-0.16406 l 34.66016,-8.75781 c 1.13281,11.38672 -3.3086,22.76562 -11.96875,30.51953 H 425.8125 c -5.44531,-4.81641 -9.33594,-11.01562 -11.15234,-18.15234 z m 96.5,18.14843 15.67968,-26.70312 c 1.78516,0.49219 3.62891,0.84375 5.5625,0.84375 3.75391,0 7.23438,-1.07422 10.28907,-2.80859 l 16.60546,16.97656 c -1.87109,3.14062 -3.01171,6.76562 -3.01171,10.67969 0,0.34765 0.0859,0.67187 0.10546,1.01562 h -45.23046 z m 66.14843,9.21094 c -4.08593,0 -7.59375,-2.42969 -9.22656,-5.90234 -0.004,-0.0117 -0.0117,-0.0156 -0.0156,-0.0273 -0.60938,-1.30859 -0.97657,-2.75781 -0.97657,-4.29296 0,-5.63672 4.58203,-10.22266 10.21875,-10.22266 5.62891,0 10.21094,4.58594 10.21094,10.22266 0,5.63671 -4.58203,10.22265 -10.21094,10.22265 z M 562.20703,148.42969 c 6.55469,-0.19141 19.0625,0.5 26.38281,7.82031 2.48047,2.48437 3.84766,5.77734 3.84766,9.29297 0,3.5039 -1.36719,6.80859 -3.84766,9.28906 -5.11718,5.12109 -13.44531,5.12109 -18.5664,0 -7.31641,-7.32812 -8.01563,-19.84766 -7.81641,-26.40234 z m 69.47656,69.49218 c -2.11718,2.12891 -5.66797,2.1875 -7.85547,-0.004 l -32.00781,-32.03125 c 1.5625,-0.96094 3.0586,-2.0586 4.41016,-3.41406 1.35547,-1.35547 2.46484,-2.875 3.4414,-4.47266 l 31.99219,32.01562 c 2.16406,2.20313 2.17578,5.75 0.0195,7.90625 z m 4.11719,-56.28906 c -5.63672,0 -10.21875,-4.58594 -10.21875,-10.22656 0,-5.63672 4.58203,-10.22266 10.21875,-10.22266 5.63281,0 10.21484,4.58594 10.21484,10.22266 0,5.64062 -4.58203,10.22656 -10.21484,10.22656 z m -249.375,-3.38672 12.26563,5.92578 8.97265,10.25391 c 1,1.14063 2.42578,1.80859 3.9375,1.84375 0.043,0 0.082,0 0.1211,0 1.46875,0 2.8789,-0.59766 3.89843,-1.66797 l 9.42188,-9.83203 12.51172,-5.375 c 1.39453,-0.59766 2.47265,-1.75391 2.97265,-3.1875 0.5,-1.43359 0.375,-3.00781 -0.33984,-4.34375 l -6.43359,-12.00781 -1.23829,-13.57031 c -0.13671,-1.50782 -0.90234,-2.89453 -2.11328,-3.8125 -1.20703,-0.91797 -2.75,-1.29297 -4.23047,-1.01563 L 412.77344,123.875 399.5,120.85547 c -1.47266,-0.33594 -3.03906,-0.0312 -4.27734,0.82812 -1.24219,0.86329 -2.07422,2.21094 -2.27735,3.71875 l -1.83984,13.5 -6.97656,11.70703 c -0.77735,1.30079 -0.96485,2.8711 -0.53516,4.32813 0.44531,1.44922 1.46484,2.64844 2.83203,3.30859 z m 14.52734,-14.7539 c 0.3711,-0.625 0.61329,-1.31641 0.71094,-2.03907 l 1.19141,-8.73828 8.60156,1.95313 c 0.71094,0.15625 1.44922,0.17969 2.15625,0.0469 l 8.67188,-1.5664 0.79296,8.78906 c 0.0703,0.72266 0.28125,1.42578 0.625,2.0625 l 4.16407,7.77734 -8.10547,3.48438 c -0.66406,0.28515 -1.26563,0.70312 -1.76563,1.23437 l -6.08984,6.35938 -5.80859,-6.64063 c -0.47657,-0.54687 -1.06641,-0.99218 -1.71875,-1.30468 l -7.94532,-3.83594 z m 0,0"
       fill-opacity="1"
       fill-rule="nonzero"
       id="path11" />
  </g>
</svg>
