<?xml version="1.0" encoding="UTF-8" standalone="no"?>
<svg
   width="983.85767"
   zoomAndPan="magnify"
   viewBox="0 0 737.89326 697.64026"
   height="930.18701"
   preserveAspectRatio="xMidYMid"
   version="1.0"
   id="svg2"
   sodipodi:docname="ic_fb_decor.svg"
   inkscape:export-filename="ic_fb_decor.svg"
   inkscape:export-xdpi="96"
   inkscape:export-ydpi="96"
   inkscape:version="1.3.2 (091e20e, 2023-11-25)"
   xmlns:inkscape="http://www.inkscape.org/namespaces/inkscape"
   xmlns:sodipodi="http://sodipodi.sourceforge.net/DTD/sodipodi-0.dtd"
   xmlns="http://www.w3.org/2000/svg"
   xmlns:svg="http://www.w3.org/2000/svg">
  <sodipodi:namedview
     id="namedview1"
     pagecolor="#ffffff"
     bordercolor="#999999"
     borderopacity="1"
     inkscape:showpageshadow="2"
     inkscape:pageopacity="0"
     inkscape:pagecheckerboard="0"
     inkscape:deskcolor="#d1d1d1"
     showguides="true"
     inkscape:zoom="0.59623344"
     inkscape:cx="435.23221"
     inkscape:cy="411.75148"
     inkscape:window-width="1224"
     inkscape:window-height="1258"
     inkscape:window-x="0"
     inkscape:window-y="71"
     inkscape:window-maximized="0"
     inkscape:current-layer="g1">
    <sodipodi:guide
       position="394.47375,339.29048"
       orientation="0,-1"
       id="guide1"
       inkscape:locked="false" />
    <sodipodi:guide
       position="378.5792,791.56258"
       orientation="1,0"
       id="guide2"
       inkscape:locked="false" />
  </sodipodi:namedview>
  <defs
     id="defs1">
    <clipPath
       id="4537066696">
      <path
         d="M 380.38672,10 H 643.50781 V 566 H 380.38672 Z m 0,0"
         clip-rule="nonzero"
         id="path1" />
    </clipPath>
  </defs>
  <g
     id="g1"
     transform="matrix(1.4787985,0,0,1.4787985,720.91426,439.20315)">
    <path
       style="fill:#6774e8;fill-opacity:1;stroke:none;stroke-width:7.75129;stroke-dasharray:none;stroke-opacity:1"
       id="rect15"
       width="413.29385"
       height="410.57495"
       x="770.33679"
       y="193.02826"
       ry="0"
       d="m -353.47543,-297 h 303.102806 a 62.006654,62.417268 0 0 1 62.006686,62.41727 V 67.698841 A 62.006654,62.417268 0 0 1 -50.372624,130.11614 H -353.47543 A 62.006654,62.417268 0 0 1 -415.48207,67.698841 V -234.58273 A 62.006654,62.417268 0 0 1 -353.47543,-297 Z" />
    <path
       style="fill:none;stroke:#000000;stroke-width:7.42703;stroke-dasharray:none;stroke-opacity:1"
       id="rect14"
       width="457.67792"
       height="451.33386"
       x="286.38855"
       y="67.97197"
       d="m -398.03132,-279.02493 h 332.06693 a 59.003015,59.832378 0 0 1 59.00302,59.83237 v 330.40822 a 59.003015,59.832378 0 0 1 -59.00302,59.83237 h -332.06693 a 59.003015,59.832378 0 0 1 -59.00301,-59.83237 v -330.40822 a 59.003015,59.832378 0 0 1 59.00301,-59.83237 z" />
    <circle
       style="fill:#000000;fill-opacity:1;stroke-width:7.5"
       id="path1-0"
       cx="-457.21359"
       cy="81.987709"
       r="30.286409" />
  </g>
  <g
     clip-path="url(#4537066696)"
     id="g2"
     transform="matrix(0.8012703,0,0,0.79135521,-32.550657,128.41238)">
    <path
       fill="#ffffff"
       d="m 582.80469,101.83594 h 60.70312 V 10.300781 h -77.51172 v 0.351563 C 464.08594,14.386719 443.07422,71.480469 441.32422,131.84375 h -0.23438 v 63.51172 h -60.70312 v 91.65234 h 60.70312 V 565.58594 H 550.00391 V 287.00781 h 78.09765 l 15.40625,-91.65234 h -93.5039 v -56.85938 c 0,-20.19531 13.54296,-36.66015 32.80078,-36.66015 z m 0,0"
       fill-opacity="1"
       fill-rule="nonzero"
       id="path2" />
  </g>
</svg>
