<?xml version="1.0" encoding="UTF-8" standalone="no"?>
<svg
   width="697.03613"
   zoomAndPan="magnify"
   viewBox="0 0 522.7771 496.06389"
   height="661.41852"
   preserveAspectRatio="xMidYMid"
   version="1.0"
   id="svg14"
   xmlns="http://www.w3.org/2000/svg"
   xmlns:svg="http://www.w3.org/2000/svg">
  <defs
     id="defs7">
    <clipPath
       id="f3d9e15ebf">
      <path
         d="M 345.62109,85.5625 H 695.69922 V 503.10547 H 345.62109 Z m 0,0"
         clip-rule="nonzero"
         id="path5" />
    </clipPath>
    <clipPath
       id="e6a82c154e">
      <path
         d="m 258.49219,360.3125 h 60.97265 v 60.97266 h -60.97265 z m 0,0"
         clip-rule="nonzero"
         id="path6" />
    </clipPath>
    <clipPath
       id="38f4bfa110">
      <path
         d="m 288.97656,360.3125 c -16.83594,0 -30.48437,13.64844 -30.48437,30.48437 0,16.83985 13.64843,30.48829 30.48437,30.48829 16.83985,0 30.48828,-13.64844 30.48828,-30.48829 0,-16.83593 -13.64843,-30.48437 -30.48828,-30.48437 z m 0,0"
         clip-rule="nonzero"
         id="path7" />
    </clipPath>
  </defs>
  <path
     style="fill:#3fecc2;fill-opacity:1;stroke:none;stroke-width:7.47573;stroke-dasharray:none;stroke-opacity:1"
     id="rect15"
     width="413.29385"
     height="410.57495"
     x="770.33679"
     y="193.02826"
     ry="0"
     d="m 830.33679,193.02826 h 293.29381 a 60,60 45 0 1 60,60 v 290.57495 a 60,60 135 0 1 -60,60 H 830.33679 a 60,60 45 0 1 -60,-60 l 0,-290.57495 a 60,60 135 0 1 60,-60 z"
     transform="matrix(1.1005035,0,0,1.1125761,-779.81256,-214.75863)" />
  <g
     clip-path="url(#f3d9e15ebf)"
     id="g12"
     transform="translate(-258.49219,-28.804567)">
    <path
       fill="#000000"
       d="m 668.80469,165.76562 c 7.67187,0 13.89453,6.23829 13.89453,13.91797 0,7.67578 -6.22266,13.91407 -13.89453,13.91407 -7.67578,0 -13.91016,-6.23829 -13.91016,-13.91407 0,-7.67968 6.23438,-13.91797 13.91016,-13.91797 z m 5.74218,139.65625 c 0,15.50782 -6.26953,29.64063 -16.39453,39.92969 v -5.60937 c 0,-15.55078 -8.84765,-29.14453 -21.78515,-35.92578 4.41406,-4.63282 7.13281,-10.8711 7.13281,-17.79297 0,-14.23828 -11.59766,-25.85547 -25.84766,-25.85547 -14.25,0 -25.84375,11.61719 -25.84375,25.85547 0,6.92187 2.70313,13.16015 7.13282,17.79297 -12.9375,6.78125 -21.80079,20.375 -21.80079,35.92578 v 5.60937 c -10.11328,-10.28906 -16.3789,-24.42187 -16.3789,-39.92969 0,-31.39843 25.51953,-56.92968 56.89062,-56.92968 31.375,0 56.89453,25.53125 56.89453,56.92968 z M 604.4375,286.02344 c 0,7.28906 5.92969,13.22265 13.21484,13.22265 7.27344,0 13.20313,-5.93359 13.20313,-13.22265 0,-7.30469 -5.92969,-13.21875 -13.20313,-13.21875 -7.28515,0 -13.21484,5.91406 -13.21484,13.21875 z m -14.65234,68.96484 c 17.24609,9.82422 38.49218,9.80859 55.73437,0 v -15.24609 c 0,-15.35157 -12.50391,-27.87891 -27.86719,-27.87891 -15.375,0 -27.86718,12.52734 -27.86718,27.87891 z m -32.3125,22.66016 14.44921,-19.87891 C 565.16016,351.85156 559.53906,344.59375 555.48047,336.5 l -68.92188,26.8125 c 2.22266,7.80078 3.02735,15.30859 2.53125,23.55469 l 33.82813,5.22265 c 5.54297,-13.3789 20.6289,-19.95703 34.55469,-14.4414 z m -10.03516,38.53515 c -7.67578,0 -13.91406,-6.24218 -13.91406,-13.91797 0,-7.67578 6.23828,-13.89843 13.91406,-13.89843 7.65625,0 13.91016,6.22265 13.91016,13.89843 0,7.67579 -6.23829,13.91797 -13.91016,13.91797 z m -87.23438,6.13282 v -5.54688 c 0,-15.61328 -8.84375,-29.16016 -21.78515,-35.92578 4.41797,-4.63281 7.14844,-10.91797 7.14844,-17.85547 0,-14.23828 -11.60938,-25.85547 -25.85938,-25.85547 -14.25,0 -25.84375,11.61719 -25.84375,25.85547 0,6.9375 2.71484,13.22266 7.13281,17.85547 -12.9375,6.76562 -21.78515,20.3125 -21.78515,35.92578 v 5.54688 c -10.12891,-10.28907 -16.38282,-24.35938 -16.38282,-39.92969 0,-31.33594 25.52344,-56.86719 56.87891,-56.86719 31.37109,0 56.89453,25.53125 56.89453,56.86719 0,15.57031 -6.2539,29.64062 -16.39844,39.92969 z m 53.92969,54.14843 c 0,7.67969 -6.22265,13.91797 -13.89453,13.91797 -7.67187,0 -13.91016,-6.23828 -13.91016,-13.91797 0,-7.67578 6.23829,-13.91406 13.91016,-13.91406 7.67188,0 13.89453,6.23828 13.89453,13.91406 z M 406.49219,362.98828 c 0,7.30469 5.92968,13.22266 13.21484,13.22266 7.28906,0 13.21484,-5.91797 13.21484,-13.22266 0,-7.24219 -5.92578,-13.21875 -13.21484,-13.21875 -7.28516,0 -13.21484,5.97656 -13.21484,13.21875 z m -14.63672,69.02734 c 17.29297,9.73047 38.41406,9.7461 55.70312,0 v -15.24609 c 0,-15.39844 -12.48828,-27.87891 -27.85156,-27.87891 -15.36328,0 -27.85156,12.48047 -27.85156,27.87891 z m -6.00781,-179.04296 c 9.58984,-5.77735 14.71484,-17.16016 12.19921,-28.46875 l 16.36329,-8.04688 c 8.13671,13.16016 20.55078,23.46094 35.29687,28.89844 l -18.25,68.48437 c -9.04687,-1.51172 -17.42969,-1.32812 -26.38672,0.58985 z m -27.63282,-22.70704 c 0,7.67579 6.23438,13.91797 13.91016,13.91797 7.67187,0 13.91016,-6.24218 13.91016,-13.91797 0,-7.67578 -6.23829,-13.91406 -13.91016,-13.91406 -7.67578,0 -13.91016,6.23828 -13.91016,13.91406 z m 115.4375,-107.14453 c -31.37109,0 -56.89453,25.53125 -56.89453,56.9336 0,15.5039 6.26953,29.63672 16.39844,39.92578 v -5.59375 c 0,-15.56641 8.84375,-29.16016 21.78516,-35.92578 -4.41797,-4.64844 -7.14844,-10.8711 -7.14844,-17.8086 0,-14.28515 11.59375,-25.85547 25.85937,-25.85547 14.25,0 25.84375,11.57032 25.84375,25.85547 0,6.9375 -2.71484,13.16016 -7.13281,17.8086 12.9375,6.76562 21.78516,20.35937 21.78516,35.92578 v 5.59375 c 10.1289,-10.28906 16.39843,-24.42188 16.39843,-39.92578 0,-31.40235 -25.52343,-56.9336 -56.89453,-56.9336 z m 0,63.38672 c -15.36328,0 -27.86718,12.52735 -27.86718,27.86328 v 15.2461 c 17.24609,9.82422 38.48828,9.82422 55.71875,0 v -15.2461 c 0,-15.33593 -12.48829,-27.86328 -27.85157,-27.86328 z M 460.4375,160.65234 c 0,-7.30468 5.92578,-13.21875 13.21484,-13.21875 7.28516,0 13.19922,5.91407 13.19922,13.21875 0,7.3086 -5.91406,13.22266 -13.19922,13.22266 -7.28906,0 -13.21484,-5.91406 -13.21484,-13.22266 z m 90.42578,164.0625 c -6.01953,-20.74218 -1.99219,-42.70703 10.375,-59.91406 L 521.62109,230.3125 c -15.71484,15.02734 -37.39453,22.02344 -59.6875,18.28906 l -18.25,68.5 c 16.72266,6.17578 30.42969,18.59375 38.30469,34.42578 z m 19.14453,-152.01562 -26.91015,3.83203 c 0.8164,16.37109 -4.07422,31.74219 -13.14063,44.25 l 39.58984,34.47656 c 8.50391,-8.15625 19.06641,-14.22656 30.81641,-17.20703 l -7.85937,-48.77734 c -10.22266,-0.80078 -18.82032,-7.46094 -22.4961,-16.57422 z m 24.625,-23.83203 c 7.66016,0 13.91016,6.24218 13.91016,13.91797 0,7.67578 -6.25,13.91796 -13.91016,13.91796 -7.67187,0 -13.91015,-6.24218 -13.91015,-13.91796 0,-7.67579 6.23828,-13.91797 13.91015,-13.91797 z m -212.39453,-22.75 c -7.67578,0 -13.89844,-6.23828 -13.89844,-13.91797 0,-7.67578 6.22266,-13.914064 13.89844,-13.914064 7.67188,0 13.91016,6.238284 13.91016,13.914064 0,7.67969 -6.23828,13.91797 -13.91016,13.91797 z m 286.56641,80.10156 c 14.63672,0 26.53906,-11.94141 26.53906,-26.53516 0,-14.66015 -11.90234,-26.59765 -26.53906,-26.59765 -14.63672,0 -26.55469,11.9375 -26.55469,26.59765 0,8.78907 4.33594,16.63282 10.97656,21.48438 l -15.33203,37.6875 c -8.02734,-2.41016 -16.44141,-3.41406 -25.04297,-2.82813 l -7.875,-48.77734 c 9.51172,-4.04688 16.19531,-13.48438 16.19531,-24.46484 0,-14.61329 -11.90234,-26.55079 -26.53906,-26.55079 -13.7539,0 -25.10156,10.50391 -26.41406,23.94141 l -26.92578,3.82813 c -7.25781,-30.64454 -34.81641,-53.5 -67.64063,-53.5 -20.5664,0 -39.07812,9.0039 -51.8125,23.22656 l -15.11718,-11.24219 c 7.27343,-17.05078 -5.21875,-36.839842 -24.48438,-36.839842 -14.63672,0 -26.54297,11.894531 -26.54297,26.550782 0,22.47656 26.2461,34.66015 43.47656,20.46875 l 15.11719,11.19531 c -11.21094,18.35156 -13.33984,40.99219 -5.48047,61.24219 l -16.36718,8.04687 c -4.87891,-5.76172 -12.16407,-9.48437 -20.31641,-9.48437 -14.63672,0 -26.54297,11.9414 -26.54297,26.59765 0,14.66016 11.90625,26.53516 26.54297,26.53516 0.57031,0 1.10937,0 1.66797,-0.0469 l 19.21875,61.41406 c -25.13281,10.48437 -42.82813,35.33594 -42.82813,64.21875 0,38.38281 31.1875,69.5664 69.53907,69.5664 14.97656,0 28.83984,-4.7539 40.20312,-12.84765 l 18.75781,21.89844 c -12.45703,17.17578 -0.27734,42.01171 21.55469,42.01171 14.63672,0 26.53906,-11.89062 26.53906,-26.55078 0,-19.67578 -20.73437,-32.67968 -38.5039,-23.72265 l -18.74219,-21.90235 c 8.41406,-8.63281 14.58984,-19.46093 17.61328,-31.49218 l 33.85938,5.21875 c 1.17187,13.59375 12.5664,24.25 26.43359,24.25 22.50781,0 34.8125,-26.48829 20.25391,-43.71094 l 14.45312,-19.9375 c 10.40625,6.23828 22.53906,9.80469 35.50781,9.80469 38.33594,0 69.52344,-31.23047 69.52344,-69.55079 0,-26.85937 -15.26953,-50.16406 -37.57812,-61.78125 l 15.34765,-37.6875 c 1.26563,0.17188 2.53125,0.26563 3.85938,0.26563 z m 0,0"
       fill-opacity="1"
       fill-rule="evenodd"
       id="path11" />
  </g>
  <g
     clip-path="url(#e6a82c154e)"
     id="g14"
     transform="translate(-258.49219,-28.804567)">
    <g
       clip-path="url(#38f4bfa110)"
       id="g13">
      <path
         fill="#000000"
         d="m 258.49219,360.3125 h 60.97265 v 60.97266 h -60.97265 z m 0,0"
         fill-opacity="1"
         fill-rule="nonzero"
         id="path12" />
    </g>
  </g>
  <path
     style="fill:none;stroke:#000000;stroke-width:7.5;stroke-dasharray:none;stroke-opacity:1"
     id="rect14"
     width="457.67792"
     height="451.33386"
     x="286.38855"
     y="67.97197"
     d="m 346.38855,67.97197 h 337.67792 a 60,60 45 0 1 60,60 v 331.33386 a 60,60 135 0 1 -60,60 H 346.38855 a 60,60 45 0 1 -60,-60 V 127.97197 a 60,60 135 0 1 60,-60 z"
     transform="translate(-256.96072,-26.991982)" />
</svg>
