<?xml version="1.0" encoding="UTF-8" standalone="no"?>
<svg
   version="1.2"
   viewBox="0 0 904.14992 311.44265"
   width="546.86487"
   height="188.64919"
   id="svg6"
   xmlns="http://www.w3.org/2000/svg"
   xmlns:svg="http://www.w3.org/2000/svg">
  <defs
     id="defs1">
    <clipPath
       clipPathUnits="userSpaceOnUse"
       id="cp1">
      <path
         d="M 0,0 H 992 V 454 H 0 Z"
         id="path1" />
    </clipPath>
  </defs>
  <style
     id="style1">.a{fill:none;stroke:#80cdee;stroke-linecap:round;stroke-width:56.7}.b{fill:none;stroke:#cada4b;stroke-linecap:round;stroke-width:56.7}.c{fill:none;stroke:#ff4d53;stroke-linecap:round;stroke-width:56.7}.d{fill:none;stroke:#40c5b9;stroke-linecap:round;stroke-width:56.7}.e{fill:#443d31}</style>
  <g
     clip-path="url(#cp1)"
     id="g6"
     transform="translate(-28.349998,-85.783337)">
    <g
       style="mix-blend-mode:multiply"
       id="g2">
      <path
         class="a"
         d="m 198.4,142.2 170.1,85"
         id="path2" />
    </g>
    <g
       style="mix-blend-mode:multiply"
       id="g3">
      <path
         class="b"
         d="M 226.8,369 368.5,227.2"
         id="path3" />
    </g>
    <g
       style="mix-blend-mode:multiply"
       id="g4">
      <path
         class="c"
         d="m 340.2,113.8 28.3,113.4"
         id="path4" />
    </g>
    <g
       style="mix-blend-mode:multiply"
       id="g5">
      <path
         class="d"
         d="M 56.7,255.6 368.5,227.2"
         id="path5" />
    </g>
    <path
       fill-rule="evenodd"
       class="e"
       d="m 467.2,222.9 h 25 v 11.9 h -25 v 9.8 h 28.6 v 12.2 h -42.6 v -56.4 h 42.6 v 12.2 h -28.6 z m 118.4,33.9 h -41.8 v -56.4 h 14 v 44.1 h 27.8 z m 65.2,-56.4 c 14.7,0 23.9,8 23.9,20.6 0,13.2 -9.7,21.4 -25,21.4 h -7.6 v 14.4 h -14 v -56.4 z m -0.3,29.8 c 6.2,0 10.2,-3.6 10.2,-9.2 0,-5 -4,-8.3 -10.2,-8.3 h -8.4 v 17.5 z m 82.5,26.6 h -14 v -56.4 h 14 z m 74,-56.4 c 17.8,0 30.5,11.6 30.5,28.1 0,16.7 -12.7,28.3 -30.5,28.3 h -22.6 v -56.4 z m 0,43.8 c 9.2,0 16.2,-6.8 16.2,-15.7 0,-8.8 -7,-15.5 -16.2,-15.5 h -8.6 v 31.2 z m 82.9,2.9 -3.7,9.7 h -14.9 l 23.9,-56.7 h 13.5 l 23.8,56.7 h -14.9 l -3.8,-9.7 z m 11.9,-30.7 -7.3,18.8 h 14.6 z"
       id="path6" />
  </g>
</svg>
