<?xml version="1.0" encoding="UTF-8" standalone="no"?>
<svg
   width="983.85767"
   zoomAndPan="magnify"
   viewBox="0 0 737.89326 697.64026"
   height="930.18701"
   preserveAspectRatio="xMidYMid"
   version="1.0"
   id="svg2"
   xmlns="http://www.w3.org/2000/svg"
   xmlns:svg="http://www.w3.org/2000/svg">
  <defs
     id="defs1" />
  <g
     id="g1"
     transform="matrix(1.4787985,0,0,1.4787985,720.91426,439.20315)">
    <path
       style="fill:#3fedc3;fill-opacity:1;stroke:none;stroke-width:7.7537;stroke-dasharray:none;stroke-opacity:1"
       id="rect15"
       width="413.29385"
       height="410.57495"
       x="770.33679"
       y="193.02826"
       ry="0"
       d="m -353.74111,-297 h 303.196787 a 62.025881,62.436622 0 0 1 62.025913,62.43662 V 67.81193 a 62.025881,62.436622 0 0 1 -62.025913,62.43665 H -353.74111 A 62.025881,62.436622 0 0 1 -415.76698,67.81193 V -234.56338 A 62.025881,62.436622 0 0 1 -353.74111,-297 Z" />
    <path
       style="fill:none;stroke:#000000;stroke-width:7.42703;stroke-dasharray:none;stroke-opacity:1"
       id="rect14"
       width="457.67792"
       height="451.33386"
       x="286.38855"
       y="67.97197"
       d="m -398.03132,-279.02493 h 332.06693 a 59.003015,59.832378 0 0 1 59.00302,59.83237 v 330.40822 a 59.003015,59.832378 0 0 1 -59.00302,59.83237 h -332.06693 a 59.003015,59.832378 0 0 1 -59.00301,-59.83237 v -330.40822 a 59.003015,59.832378 0 0 1 59.00301,-59.83237 z" />
    <circle
       style="fill:#000000;fill-opacity:1;stroke-width:7.5"
       id="path1-0"
       cx="-457.21359"
       cy="81.987709"
       r="30.286409" />
  </g>
  <g
     id="7935ec95c421cee6d86eb22ecd1368a9"
     transform="matrix(0.88273667,0,0,0.88273667,198.43279,82.311132)"
     style="fill:#ffffff;fill-opacity:1">

<path
   style="display:inline;fill:#ffffff;fill-opacity:1"
   d="m -14.924569,56.575613 h 45.959 l 29.604005,91.095977 h 2.863002 L 91.734455,56.575613 H 138.08746 L 84.980451,189.91358 v 94.589 h -45.61802 v -90.347 z M 142.91446,154.73258 c 0,-13.37399 5.495,-24.00298 16.493,-31.93798 10.984,-7.93399 25.749,-11.90099 44.3,-11.90099 16.893,0 30.728,4.192 41.506,12.54999 10.805,8.358 16.193,19.11199 16.193,32.28698 v 89.2 c 0,14.771 -5.301,26.373 -15.868,34.782 -10.579,8.408 -25.151,12.625 -43.684,12.625 -17.859,0 -32.143,-4.342 -42.866,-13.024 -10.709,-8.683 -16.074,-20.36 -16.074,-35.057 z m 42.012,92.767 c 0,4.766 1.44,8.409 4.354,11.029 2.907,2.595 7.055,3.867 12.451,3.867 5.532,0 9.93,-1.297 13.18,-3.942 3.256,-2.669 4.891,-6.313 4.891,-10.954 v -94.065 c 0,-3.768 -1.672,-6.81199 -4.99,-9.13199 -3.318,-2.321 -7.679,-3.494 -13.081,-3.494 -4.972,0 -9.027,1.173 -12.133,3.494 -3.119,2.32 -4.672,5.36399 -4.672,9.13199 z m 225.787,-133.83597 v 172.71097 h -40.883 v -19.063 c -7.547,7.037 -15.381,12.375 -23.541,16.069 -8.146,3.643 -16.068,5.489 -23.729,5.489 -9.455,0 -16.592,-2.57 -21.383,-7.71 -4.791,-5.141 -7.186,-12.85 -7.186,-23.13 V 113.66361 h 40.895 v 132.38997 c 0,4.117 0.861,7.061 2.57,8.907 1.723,1.822 4.492,2.745 8.322,2.745 3.018,0 6.824,-1.223 11.4,-3.643 4.604,-2.42 8.82,-5.514 12.65,-9.282 V 113.66361 Z m -38.312,305.67397 c -2.008,-2.221 -5.203,-3.368 -9.594,-3.368 -4.59,0 -7.883,1.147 -9.879,3.368 -1.996,2.245 -2.994,5.963 -2.994,11.153 v 10.754 h 25.473 v -10.754 c 0,-5.19 -0.998,-8.908 -3.006,-11.153 z m -120.825,80.966 c 2.195,0.898 4.516,1.322 6.961,1.322 3.543,0 6.113,-0.849 7.785,-2.595 1.67,-1.722 2.494,-4.591 2.494,-8.533 v -62.178 c 0,-4.191 -1.023,-7.36 -3.068,-9.531 -2.059,-2.171 -5.064,-3.244 -8.957,-3.244 -2.059,0 -4.092,0.399 -6.102,1.198 -2.008,0.823 -3.991,2.096 -5.95,3.792 v 75.402 c 2.346,2.046 4.628,3.493 6.837,4.367 z m 189.641,-131.641 c 0,-29.941 -30.754,-54.219 -68.654,-54.219 -54.068,-1.822 -109.396,-2.62 -165.842,-2.521 -56.427,-0.1 -111.756003,0.698 -165.843029,2.521 -37.881,0 -68.633,24.277 -68.633,54.219 -2.277,23.678 -3.263,47.381 -3.175,71.085 -0.087,23.703 0.898,47.406 3.175,71.11 0,29.916 30.752,54.192 68.633,54.192 54.087026,1.797 109.416029,2.596 165.843029,2.521 56.446,0.075 111.774,-0.724 165.842,-2.521 37.9,0 68.654,-24.276 68.654,-54.192 2.27,-23.704 3.254,-47.407 3.154,-71.11 0.1,-23.704 -0.884,-47.407 -3.154,-71.085 z m -369.245017,150.878 v 1.797 H 39.499431 v -1.797 -141.821 h -33.596 v -1.771 -22.605 -1.771 h 99.672029 v 1.771 22.605 1.771 H 71.972443 Z m 115.517017,-122.135 v 122.135 1.797 h -28.831 v -1.797 -11.901 c -5.327,5.064 -10.848,8.882 -16.592,11.527 -5.757,2.619 -11.334,3.942 -16.748,3.942 -6.662,0 -11.684,-1.847 -15.065,-5.515 -3.387,-3.692 -5.078,-9.231 -5.078,-16.617 v -1.797 -101.774 -1.772 h 28.844 v 1.772 93.216 c 0,2.92 0.599,5.065 1.802,6.363 1.217,1.322 3.175,1.971 5.876,1.971 2.127,0 4.803,-0.873 8.047,-2.595 3.231,-1.747 6.2,-3.967 8.914,-6.662 v -92.293 -1.772 h 28.831 z m 111.007,29.517 v 66.943 1.797 c 0,8.808 -2.258,15.544 -6.773,20.235 -4.518,4.641 -11.055,6.986 -19.588,6.986 -5.639,0 -10.652,-0.898 -15.07,-2.695 -4.428,-1.821 -8.532,-4.616 -12.325,-8.384 v 7.735 1.797 h -29.105 v -1.797 -166.197 -1.771 h 29.105 v 1.771 52.297 c 3.893,-3.793 8.009,-6.662 12.376,-8.608 4.379,-1.971 8.809,-2.969 13.273,-2.969 9.107,0 16.094,2.645 20.896,7.935 4.803,5.289 7.211,12.999 7.211,23.13 z m 106.59,3.793 v 29.767 1.797 h -55.152 v 21.581 c 0,6.513 0.947,11.029 2.844,13.549 1.908,2.521 5.152,3.793 9.742,3.793 4.779,0 8.135,-1.073 10.043,-3.219 1.896,-2.121 2.844,-6.837 2.844,-14.123 v -6.811 -1.796 h 29.68 v 1.796 7.51 1.796 c 0,12.7 -3.605,22.257 -10.84,28.694 -7.225,6.438 -18.016,9.631 -32.375,9.631 -12.912,0 -23.066,-3.418 -30.49,-10.229 -7.41,-6.812 -11.127,-16.193 -11.127,-28.096 v -1.796 -53.844 -1.771 c 0,-10.754 4.078,-19.512 12.213,-26.299 8.146,-6.762 18.689,-10.155 31.588,-10.155 13.199,0 23.328,3.144 30.416,9.406 7.061,6.264 10.615,15.296 10.615,27.048 v 1.771 z"
   id="path1-07">

</path>


</g>
</svg>
