<svg xmlns="http://www.w3.org/2000/svg" xmlns:xlink="http://www.w3.org/1999/xlink" width="1366" zoomAndPan="magnify" viewBox="0 0 1024.5 576" height="768" preserveAspectRatio="xMidYMid meet" version="1.0"><defs><filter x="0%" y="0%" width="100%" height="100%" id="6af462a613"><feColorMatrix values="0 0 0 0 1 0 0 0 0 1 0 0 0 0 1 0 0 0 1 0" color-interpolation-filters="sRGB"/></filter><mask id="6292bb2b22"><g filter="url(#6af462a613)"><rect x="-102.45" width="1229.4" fill="#000000" y="-57.6" height="691.2" fill-opacity="0.05"/></g></mask><clipPath id="8e16e29ae4"><path d="M 0.523438 0.710938 L 24.59375 0.710938 L 24.59375 24.78125 L 0.523438 24.78125 Z M 0.523438 0.710938 " clip-rule="nonzero"/></clipPath><clipPath id="5f256edac8"><path d="M 12.558594 0.710938 C 5.910156 0.710938 0.523438 6.101562 0.523438 12.746094 C 0.523438 19.394531 5.910156 24.78125 12.558594 24.78125 C 19.203125 24.78125 24.59375 19.394531 24.59375 12.746094 C 24.59375 6.101562 19.203125 0.710938 12.558594 0.710938 Z M 12.558594 0.710938 " clip-rule="nonzero"/></clipPath><clipPath id="aea8b37576"><rect x="0" width="25" y="0" height="25"/></clipPath><mask id="7ebeb8468b"><g filter="url(#6af462a613)"><rect x="-102.45" width="1229.4" fill="#000000" y="-57.6" height="691.2" fill-opacity="0.05"/></g></mask><clipPath id="e319d5fd7d"><path d="M 0.980469 0.226562 L 25.050781 0.226562 L 25.050781 24.296875 L 0.980469 24.296875 Z M 0.980469 0.226562 " clip-rule="nonzero"/></clipPath><clipPath id="67127c57a3"><path d="M 13.015625 0.226562 C 6.371094 0.226562 0.980469 5.613281 0.980469 12.261719 C 0.980469 18.90625 6.371094 24.296875 13.015625 24.296875 C 19.664062 24.296875 25.050781 18.90625 25.050781 12.261719 C 25.050781 5.613281 19.664062 0.226562 13.015625 0.226562 Z M 13.015625 0.226562 " clip-rule="nonzero"/></clipPath><clipPath id="503965ce47"><rect x="0" width="26" y="0" height="25"/></clipPath><mask id="40f1c041ff"><g filter="url(#6af462a613)"><rect x="-102.45" width="1229.4" fill="#000000" y="-57.6" height="691.2" fill-opacity="0.05"/></g></mask><clipPath id="391d10bd75"><path d="M 1.066406 1.097656 L 25.140625 1.097656 L 25.140625 25.167969 L 1.066406 25.167969 Z M 1.066406 1.097656 " clip-rule="nonzero"/></clipPath><clipPath id="70a1e838c2"><path d="M 13.105469 1.097656 C 6.457031 1.097656 1.066406 6.484375 1.066406 13.132812 C 1.066406 19.78125 6.457031 25.167969 13.105469 25.167969 C 19.75 25.167969 25.140625 19.78125 25.140625 13.132812 C 25.140625 6.484375 19.75 1.097656 13.105469 1.097656 Z M 13.105469 1.097656 " clip-rule="nonzero"/></clipPath><clipPath id="0993fd2ebb"><rect x="0" width="26" y="0" height="26"/></clipPath><mask id="6ff5d8893d"><g filter="url(#6af462a613)"><rect x="-102.45" width="1229.4" fill="#000000" y="-57.6" height="691.2" fill-opacity="0.05"/></g></mask><clipPath id="dcde2de225"><path d="M 0.445312 0.558594 L 24.515625 0.558594 L 24.515625 24.628906 L 0.445312 24.628906 Z M 0.445312 0.558594 " clip-rule="nonzero"/></clipPath><clipPath id="5f795d6323"><path d="M 12.480469 0.558594 C 5.835938 0.558594 0.445312 5.949219 0.445312 12.59375 C 0.445312 19.242188 5.835938 24.628906 12.480469 24.628906 C 19.128906 24.628906 24.515625 19.242188 24.515625 12.59375 C 24.515625 5.949219 19.128906 0.558594 12.480469 0.558594 Z M 12.480469 0.558594 " clip-rule="nonzero"/></clipPath><clipPath id="dda1bd2e62"><rect x="0" width="25" y="0" height="25"/></clipPath><mask id="0e081fcfb9"><g filter="url(#6af462a613)"><rect x="-102.45" width="1229.4" fill="#000000" y="-57.6" height="691.2" fill-opacity="0.05"/></g></mask><clipPath id="f952907b0e"><path d="M 0.5 1.109375 L 24.570312 1.109375 L 24.570312 25.179688 L 0.5 25.179688 Z M 0.5 1.109375 " clip-rule="nonzero"/></clipPath><clipPath id="3869c4c2ce"><path d="M 12.535156 1.109375 C 5.890625 1.109375 0.5 6.496094 0.5 13.144531 C 0.5 19.789062 5.890625 25.179688 12.535156 25.179688 C 19.183594 25.179688 24.570312 19.789062 24.570312 13.144531 C 24.570312 6.496094 19.183594 1.109375 12.535156 1.109375 Z M 12.535156 1.109375 " clip-rule="nonzero"/></clipPath><clipPath id="d7f51bba0d"><rect x="0" width="25" y="0" height="26"/></clipPath><mask id="b07c4a3e8e"><g filter="url(#6af462a613)"><rect x="-102.45" width="1229.4" fill="#000000" y="-57.6" height="691.2" fill-opacity="0.05"/></g></mask><clipPath id="84ef50deba"><path d="M 0.394531 0.21875 L 24.464844 0.21875 L 24.464844 24.289062 L 0.394531 24.289062 Z M 0.394531 0.21875 " clip-rule="nonzero"/></clipPath><clipPath id="947d66dda2"><path d="M 12.429688 0.21875 C 5.78125 0.21875 0.394531 5.605469 0.394531 12.253906 C 0.394531 18.898438 5.78125 24.289062 12.429688 24.289062 C 19.074219 24.289062 24.464844 18.898438 24.464844 12.253906 C 24.464844 5.605469 19.074219 0.21875 12.429688 0.21875 Z M 12.429688 0.21875 " clip-rule="nonzero"/></clipPath><clipPath id="7a552a2c62"><rect x="0" width="25" y="0" height="25"/></clipPath><mask id="a3c953cb70"><g filter="url(#6af462a613)"><rect x="-102.45" width="1229.4" fill="#000000" y="-57.6" height="691.2" fill-opacity="0.05"/></g></mask><clipPath id="152589f157"><path d="M 0.527344 0.78125 L 24.597656 0.78125 L 24.597656 24.851562 L 0.527344 24.851562 Z M 0.527344 0.78125 " clip-rule="nonzero"/></clipPath><clipPath id="a8fc83b923"><path d="M 12.5625 0.78125 C 5.914062 0.78125 0.527344 6.171875 0.527344 12.816406 C 0.527344 19.464844 5.914062 24.851562 12.5625 24.851562 C 19.207031 24.851562 24.597656 19.464844 24.597656 12.816406 C 24.597656 6.171875 19.207031 0.78125 12.5625 0.78125 Z M 12.5625 0.78125 " clip-rule="nonzero"/></clipPath><clipPath id="ceabbf6e27"><rect x="0" width="25" y="0" height="25"/></clipPath><mask id="6834872018"><g filter="url(#6af462a613)"><rect x="-102.45" width="1229.4" fill="#000000" y="-57.6" height="691.2" fill-opacity="0.05"/></g></mask><clipPath id="08d12d3f2c"><path d="M 1.042969 0.777344 L 25.113281 0.777344 L 25.113281 24.847656 L 1.042969 24.847656 Z M 1.042969 0.777344 " clip-rule="nonzero"/></clipPath><clipPath id="fe0afc3d48"><path d="M 13.078125 0.777344 C 6.429688 0.777344 1.042969 6.164062 1.042969 12.8125 C 1.042969 19.460938 6.429688 24.847656 13.078125 24.847656 C 19.722656 24.847656 25.113281 19.460938 25.113281 12.8125 C 25.113281 6.164062 19.722656 0.777344 13.078125 0.777344 Z M 13.078125 0.777344 " clip-rule="nonzero"/></clipPath><clipPath id="7d9bd80298"><rect x="0" width="26" y="0" height="25"/></clipPath><mask id="ebd28bf9c6"><g filter="url(#6af462a613)"><rect x="-102.45" width="1229.4" fill="#000000" y="-57.6" height="691.2" fill-opacity="0.05"/></g></mask><clipPath id="8569efac78"><path d="M 0.410156 0.261719 L 24.480469 0.261719 L 24.480469 24.332031 L 0.410156 24.332031 Z M 0.410156 0.261719 " clip-rule="nonzero"/></clipPath><clipPath id="4aa6180f59"><path d="M 12.445312 0.261719 C 5.800781 0.261719 0.410156 5.648438 0.410156 12.296875 C 0.410156 18.941406 5.800781 24.332031 12.445312 24.332031 C 19.09375 24.332031 24.480469 18.941406 24.480469 12.296875 C 24.480469 5.648438 19.09375 0.261719 12.445312 0.261719 Z M 12.445312 0.261719 " clip-rule="nonzero"/></clipPath><clipPath id="34a6a4ca8e"><rect x="0" width="25" y="0" height="25"/></clipPath><mask id="4d29a68915"><g filter="url(#6af462a613)"><rect x="-102.45" width="1229.4" fill="#000000" y="-57.6" height="691.2" fill-opacity="0.05"/></g></mask><clipPath id="4b158e5661"><path d="M 0.078125 0 L 24.148438 0 L 24.148438 24.070312 L 0.078125 24.070312 Z M 0.078125 0 " clip-rule="nonzero"/></clipPath><clipPath id="a0a696c261"><path d="M 12.113281 0 C 5.464844 0 0.078125 5.386719 0.078125 12.035156 C 0.078125 18.683594 5.464844 24.070312 12.113281 24.070312 C 18.757812 24.070312 24.148438 18.683594 24.148438 12.035156 C 24.148438 5.386719 18.757812 0 12.113281 0 Z M 12.113281 0 " clip-rule="nonzero"/></clipPath><clipPath id="42acd63606"><rect x="0" width="25" y="0" height="25"/></clipPath><mask id="8b8572ddf4"><g filter="url(#6af462a613)"><rect x="-102.45" width="1229.4" fill="#000000" y="-57.6" height="691.2" fill-opacity="0.05"/></g></mask><clipPath id="504ba2466e"><path d="M 0.078125 0.289062 L 24.148438 0.289062 L 24.148438 24.359375 L 0.078125 24.359375 Z M 0.078125 0.289062 " clip-rule="nonzero"/></clipPath><clipPath id="bf1942bc1d"><path d="M 12.113281 0.289062 C 5.464844 0.289062 0.078125 5.675781 0.078125 12.324219 C 0.078125 18.96875 5.464844 24.359375 12.113281 24.359375 C 18.757812 24.359375 24.148438 18.96875 24.148438 12.324219 C 24.148438 5.675781 18.757812 0.289062 12.113281 0.289062 Z M 12.113281 0.289062 " clip-rule="nonzero"/></clipPath><clipPath id="09d0231fe6"><rect x="0" width="25" y="0" height="25"/></clipPath><mask id="39572289dd"><g filter="url(#6af462a613)"><rect x="-102.45" width="1229.4" fill="#000000" y="-57.6" height="691.2" fill-opacity="0.05"/></g></mask><clipPath id="e298131e66"><path d="M 0.605469 0.285156 L 24.675781 0.285156 L 24.675781 24.355469 L 0.605469 24.355469 Z M 0.605469 0.285156 " clip-rule="nonzero"/></clipPath><clipPath id="b497b833d3"><path d="M 12.640625 0.285156 C 5.992188 0.285156 0.605469 5.675781 0.605469 12.320312 C 0.605469 18.96875 5.992188 24.355469 12.640625 24.355469 C 19.289062 24.355469 24.675781 18.96875 24.675781 12.320312 C 24.675781 5.675781 19.289062 0.285156 12.640625 0.285156 Z M 12.640625 0.285156 " clip-rule="nonzero"/></clipPath><clipPath id="b32a483b3c"><rect x="0" width="25" y="0" height="25"/></clipPath><mask id="beaf03ea02"><g filter="url(#6af462a613)"><rect x="-102.45" width="1229.4" fill="#000000" y="-57.6" height="691.2" fill-opacity="0.05"/></g></mask><clipPath id="fe94a3e618"><path d="M 0.570312 0.269531 L 24.644531 0.269531 L 24.644531 24.34375 L 0.570312 24.34375 Z M 0.570312 0.269531 " clip-rule="nonzero"/></clipPath><clipPath id="3743da2e75"><path d="M 12.605469 0.269531 C 5.960938 0.269531 0.570312 5.660156 0.570312 12.304688 C 0.570312 18.953125 5.960938 24.34375 12.605469 24.34375 C 19.253906 24.34375 24.644531 18.953125 24.644531 12.304688 C 24.644531 5.660156 19.253906 0.269531 12.605469 0.269531 Z M 12.605469 0.269531 " clip-rule="nonzero"/></clipPath><clipPath id="92672eee17"><rect x="0" width="25" y="0" height="25"/></clipPath><mask id="528c59e141"><g filter="url(#6af462a613)"><rect x="-102.45" width="1229.4" fill="#000000" y="-57.6" height="691.2" fill-opacity="0.05"/></g></mask><clipPath id="ebdb6d948b"><path d="M 0.964844 0.0820312 L 25.035156 0.0820312 L 25.035156 24.152344 L 0.964844 24.152344 Z M 0.964844 0.0820312 " clip-rule="nonzero"/></clipPath><clipPath id="d089e6cfd3"><path d="M 13 0.0820312 C 6.351562 0.0820312 0.964844 5.472656 0.964844 12.117188 C 0.964844 18.765625 6.351562 24.152344 13 24.152344 C 19.648438 24.152344 25.035156 18.765625 25.035156 12.117188 C 25.035156 5.472656 19.648438 0.0820312 13 0.0820312 Z M 13 0.0820312 " clip-rule="nonzero"/></clipPath><clipPath id="a34f573ee1"><rect x="0" width="26" y="0" height="25"/></clipPath><mask id="253c6ba6ff"><g filter="url(#6af462a613)"><rect x="-102.45" width="1229.4" fill="#000000" y="-57.6" height="691.2" fill-opacity="0.05"/></g></mask><clipPath id="3c6133220a"><path d="M 0.429688 0.617188 L 24.5 0.617188 L 24.5 24.6875 L 0.429688 24.6875 Z M 0.429688 0.617188 " clip-rule="nonzero"/></clipPath><clipPath id="a935001907"><path d="M 12.464844 0.617188 C 5.816406 0.617188 0.429688 6.007812 0.429688 12.652344 C 0.429688 19.300781 5.816406 24.6875 12.464844 24.6875 C 19.109375 24.6875 24.5 19.300781 24.5 12.652344 C 24.5 6.007812 19.109375 0.617188 12.464844 0.617188 Z M 12.464844 0.617188 " clip-rule="nonzero"/></clipPath><clipPath id="e9169e0467"><rect x="0" width="25" y="0" height="25"/></clipPath><mask id="9a166cec73"><g filter="url(#6af462a613)"><rect x="-102.45" width="1229.4" fill="#000000" y="-57.6" height="691.2" fill-opacity="0.05"/></g></mask><clipPath id="09fb7f3594"><path d="M 1.046875 0.304688 L 25.117188 0.304688 L 25.117188 24.378906 L 1.046875 24.378906 Z M 1.046875 0.304688 " clip-rule="nonzero"/></clipPath><clipPath id="38314349e0"><path d="M 13.082031 0.304688 C 6.433594 0.304688 1.046875 5.695312 1.046875 12.34375 C 1.046875 18.988281 6.433594 24.378906 13.082031 24.378906 C 19.726562 24.378906 25.117188 18.988281 25.117188 12.34375 C 25.117188 5.695312 19.726562 0.304688 13.082031 0.304688 Z M 13.082031 0.304688 " clip-rule="nonzero"/></clipPath><clipPath id="b6d9441125"><rect x="0" width="26" y="0" height="25"/></clipPath><mask id="6cf54ed62f"><g filter="url(#6af462a613)"><rect x="-102.45" width="1229.4" fill="#000000" y="-57.6" height="691.2" fill-opacity="0.05"/></g></mask><clipPath id="19aecaeb97"><path d="M 0.570312 0.214844 L 24.640625 0.214844 L 24.640625 24.285156 L 0.570312 24.285156 Z M 0.570312 0.214844 " clip-rule="nonzero"/></clipPath><clipPath id="c9d3ebf317"><path d="M 12.605469 0.214844 C 5.960938 0.214844 0.570312 5.605469 0.570312 12.25 C 0.570312 18.898438 5.960938 24.285156 12.605469 24.285156 C 19.253906 24.285156 24.640625 18.898438 24.640625 12.25 C 24.640625 5.605469 19.253906 0.214844 12.605469 0.214844 Z M 12.605469 0.214844 " clip-rule="nonzero"/></clipPath><clipPath id="7d679ce40a"><rect x="0" width="25" y="0" height="25"/></clipPath><mask id="ba79fa5408"><g filter="url(#6af462a613)"><rect x="-102.45" width="1229.4" fill="#000000" y="-57.6" height="691.2" fill-opacity="0.05"/></g></mask><clipPath id="0f496fed0d"><path d="M 0.796875 0.152344 L 24.867188 0.152344 L 24.867188 24.226562 L 0.796875 24.226562 Z M 0.796875 0.152344 " clip-rule="nonzero"/></clipPath><clipPath id="13f48da92d"><path d="M 12.832031 0.152344 C 6.1875 0.152344 0.796875 5.542969 0.796875 12.191406 C 0.796875 18.835938 6.1875 24.226562 12.832031 24.226562 C 19.480469 24.226562 24.867188 18.835938 24.867188 12.191406 C 24.867188 5.542969 19.480469 0.152344 12.832031 0.152344 Z M 12.832031 0.152344 " clip-rule="nonzero"/></clipPath><clipPath id="7c06eb4256"><rect x="0" width="25" y="0" height="25"/></clipPath><mask id="9fbf90e4ba"><g filter="url(#6af462a613)"><rect x="-102.45" width="1229.4" fill="#000000" y="-57.6" height="691.2" fill-opacity="0.05"/></g></mask><clipPath id="4ced68b6c6"><path d="M 0.371094 0.710938 L 94.167969 0.710938 L 94.167969 132.886719 L 0.371094 132.886719 Z M 0.371094 0.710938 " clip-rule="nonzero"/></clipPath><clipPath id="f5b52a666e"><rect x="0" width="95" y="0" height="133"/></clipPath><clipPath id="83ec39d618"><path d="M 137 0.140625 L 314 0.140625 L 314 113 L 137 113 Z M 137 0.140625 " clip-rule="nonzero"/></clipPath><mask id="74007d1f6d"><g filter="url(#6af462a613)"><rect x="-102.45" width="1229.4" fill="#000000" y="-57.6" height="691.2" fill-opacity="0.05"/></g></mask><clipPath id="331e532bd1"><path d="M 0.214844 0.140625 L 176.765625 0.140625 L 176.765625 112.40625 L 0.214844 112.40625 Z M 0.214844 0.140625 " clip-rule="nonzero"/></clipPath><clipPath id="1af9ae701b"><rect x="0" width="177" y="0" height="113"/></clipPath><mask id="63c225f962"><g filter="url(#6af462a613)"><rect x="-102.45" width="1229.4" fill="#000000" y="-57.6" height="691.2" fill-opacity="0.05"/></g></mask><clipPath id="c1acb32a36"><path d="M 0.746094 0.164062 L 132.921875 0.164062 L 132.921875 81.484375 L 0.746094 81.484375 Z M 0.746094 0.164062 " clip-rule="nonzero"/></clipPath><clipPath id="1087dd0948"><rect x="0" width="133" y="0" height="82"/></clipPath><mask id="e3b02e6b66"><g filter="url(#6af462a613)"><rect x="-102.45" width="1229.4" fill="#000000" y="-57.6" height="691.2" fill-opacity="0.05"/></g></mask><clipPath id="2c092120dd"><path d="M 0.75 0.0078125 L 144.921875 0.0078125 L 144.921875 91.882812 L 0.75 91.882812 Z M 0.75 0.0078125 " clip-rule="nonzero"/></clipPath><clipPath id="fc11fbbe71"><rect x="0" width="145" y="0" height="92"/></clipPath><mask id="eac6d6caae"><g filter="url(#6af462a613)"><rect x="-102.45" width="1229.4" fill="#000000" y="-57.6" height="691.2" fill-opacity="0.05"/></g></mask><clipPath id="e7d208c1f5"><path d="M 0.570312 0.203125 L 262.28125 0.203125 L 262.28125 88 L 0.570312 88 Z M 0.570312 0.203125 " clip-rule="nonzero"/></clipPath><clipPath id="c0f15f14f5"><rect x="0" width="263" y="0" height="88"/></clipPath><mask id="20402b5356"><g filter="url(#6af462a613)"><rect x="-102.45" width="1229.4" fill="#000000" y="-57.6" height="691.2" fill-opacity="0.05"/></g></mask><clipPath id="c5450914c3"><path d="M 0.597656 0.550781 L 3.71875 0.550781 L 3.71875 210 L 0.597656 210 Z M 0.597656 0.550781 " clip-rule="nonzero"/></clipPath><clipPath id="6e21b3f57c"><rect x="0" width="4" y="0" height="211"/></clipPath><mask id="589ecda23c"><g filter="url(#6af462a613)"><rect x="-102.45" width="1229.4" fill="#000000" y="-57.6" height="691.2" fill-opacity="0.05"/></g></mask><clipPath id="a8946c734b"><path d="M 0.0429688 0.691406 L 181.632812 0.691406 L 181.632812 153.976562 L 0.0429688 153.976562 Z M 0.0429688 0.691406 " clip-rule="nonzero"/></clipPath><clipPath id="995aac6932"><rect x="0" width="182" y="0" height="154"/></clipPath><mask id="6b3a28bf18"><g filter="url(#6af462a613)"><rect x="-102.45" width="1229.4" fill="#000000" y="-57.6" height="691.2" fill-opacity="0.05"/></g></mask><clipPath id="17642b03ca"><path d="M 0.0429688 0.699219 L 258.15625 0.699219 L 258.15625 207.957031 L 0.0429688 207.957031 Z M 0.0429688 0.699219 " clip-rule="nonzero"/></clipPath><clipPath id="84dff26632"><rect x="0" width="259" y="0" height="208"/></clipPath><mask id="2c5bcd2cd5"><g filter="url(#6af462a613)"><rect x="-102.45" width="1229.4" fill="#000000" y="-57.6" height="691.2" fill-opacity="0.05"/></g></mask><clipPath id="f2eee17cab"><path d="M 0.128906 0.9375 L 225.136719 0.9375 L 225.136719 111.523438 L 0.128906 111.523438 Z M 0.128906 0.9375 " clip-rule="nonzero"/></clipPath><clipPath id="e9b811f2f9"><rect x="0" width="226" y="0" height="112"/></clipPath><mask id="15903af05e"><g filter="url(#6af462a613)"><rect x="-102.45" width="1229.4" fill="#000000" y="-57.6" height="691.2" fill-opacity="0.05"/></g></mask><clipPath id="b077138b20"><path d="M 0.652344 0.195312 L 248.210938 0.195312 L 248.210938 51.53125 L 0.652344 51.53125 Z M 0.652344 0.195312 " clip-rule="nonzero"/></clipPath><clipPath id="3659c78c3c"><rect x="0" width="249" y="0" height="52"/></clipPath><mask id="a3a52ac826"><g filter="url(#6af462a613)"><rect x="-102.45" width="1229.4" fill="#000000" y="-57.6" height="691.2" fill-opacity="0.05"/></g></mask><clipPath id="176733176d"><path d="M 0.429688 0.925781 L 214.40625 0.925781 L 214.40625 72.410156 L 0.429688 72.410156 Z M 0.429688 0.925781 " clip-rule="nonzero"/></clipPath><clipPath id="c6d00afcdd"><rect x="0" width="215" y="0" height="73"/></clipPath><mask id="9372de9964"><g filter="url(#6af462a613)"><rect x="-102.45" width="1229.4" fill="#000000" y="-57.6" height="691.2" fill-opacity="0.05"/></g></mask><clipPath id="bb438f1f30"><path d="M 0.441406 0.925781 L 153.726562 0.925781 L 153.726562 72.410156 L 0.441406 72.410156 Z M 0.441406 0.925781 " clip-rule="nonzero"/></clipPath><clipPath id="28f713ee8d"><rect x="0" width="154" y="0" height="73"/></clipPath><mask id="51c30d5643"><g filter="url(#6af462a613)"><rect x="-102.45" width="1229.4" fill="#000000" y="-57.6" height="691.2" fill-opacity="0.05"/></g></mask><clipPath id="4866d8430f"><path d="M 0.511719 0.148438 L 221.203125 0.148438 L 221.203125 192.296875 L 0.511719 192.296875 Z M 0.511719 0.148438 " clip-rule="nonzero"/></clipPath><clipPath id="a9cff5f397"><rect x="0" width="222" y="0" height="193"/></clipPath><mask id="ed26d09564"><g filter="url(#6af462a613)"><rect x="-102.45" width="1229.4" fill="#000000" y="-57.6" height="691.2" fill-opacity="0.05"/></g></mask><clipPath id="88ef059c08"><path d="M 0.433594 0.378906 L 476.601562 0.378906 L 476.601562 35.640625 L 0.433594 35.640625 Z M 0.433594 0.378906 " clip-rule="nonzero"/></clipPath><clipPath id="760a509611"><rect x="0" width="477" y="0" height="36"/></clipPath><mask id="ab2e38a9c5"><g filter="url(#6af462a613)"><rect x="-102.45" width="1229.4" fill="#000000" y="-57.6" height="691.2" fill-opacity="0.05"/></g></mask><clipPath id="7d5b31fa62"><path d="M 0.902344 0.175781 L 103.09375 0.175781 L 103.09375 149.625 L 0.902344 149.625 Z M 0.902344 0.175781 " clip-rule="nonzero"/></clipPath><clipPath id="653e202e54"><rect x="0" width="104" y="0" height="150"/></clipPath><clipPath id="81b85ba0e0"><path d="M 679 0.140625 L 774 0.140625 L 774 172 L 679 172 Z M 679 0.140625 " clip-rule="nonzero"/></clipPath><mask id="62e2c0a717"><g filter="url(#6af462a613)"><rect x="-102.45" width="1229.4" fill="#000000" y="-57.6" height="691.2" fill-opacity="0.05"/></g></mask><clipPath id="d35096a12a"><path d="M 0.828125 0.140625 L 94.863281 0.140625 L 94.863281 171.417969 L 0.828125 171.417969 Z M 0.828125 0.140625 " clip-rule="nonzero"/></clipPath><clipPath id="7cfd93f4c2"><rect x="0" width="95" y="0" height="172"/></clipPath><mask id="8247ca12ff"><g filter="url(#6af462a613)"><rect x="-102.45" width="1229.4" fill="#000000" y="-57.6" height="691.2" fill-opacity="0.05"/></g></mask><clipPath id="713dd1929b"><path d="M 0.5625 0.0273438 L 174.71875 0.0273438 L 174.71875 222.160156 L 0.5625 222.160156 Z M 0.5625 0.0273438 " clip-rule="nonzero"/></clipPath><clipPath id="9342bd269e"><rect x="0" width="175" y="0" height="223"/></clipPath><mask id="72cc236b73"><g filter="url(#6af462a613)"><rect x="-102.45" width="1229.4" fill="#000000" y="-57.6" height="691.2" fill-opacity="0.05"/></g></mask><clipPath id="9675218aae"><path d="M 0.242188 1.011719 L 24.3125 1.011719 L 24.3125 25.082031 L 0.242188 25.082031 Z M 0.242188 1.011719 " clip-rule="nonzero"/></clipPath><clipPath id="5d1a5cd6c9"><path d="M 12.277344 1.011719 C 5.632812 1.011719 0.242188 6.402344 0.242188 13.046875 C 0.242188 19.695312 5.632812 25.082031 12.277344 25.082031 C 18.925781 25.082031 24.3125 19.695312 24.3125 13.046875 C 24.3125 6.402344 18.925781 1.011719 12.277344 1.011719 Z M 12.277344 1.011719 " clip-rule="nonzero"/></clipPath><clipPath id="627e4452cf"><rect x="0" width="25" y="0" height="26"/></clipPath><clipPath id="6b6fc657c5"><path d="M 372 413 L 466 413 L 466 575.859375 L 372 575.859375 Z M 372 413 " clip-rule="nonzero"/></clipPath><mask id="3c2cdf355a"><g filter="url(#6af462a613)"><rect x="-102.45" width="1229.4" fill="#000000" y="-57.6" height="691.2" fill-opacity="0.05"/></g></mask><clipPath id="80dfb4b3d9"><path d="M 0.0585938 0.9375 L 93.851562 0.9375 L 93.851562 162.859375 L 0.0585938 162.859375 Z M 0.0585938 0.9375 " clip-rule="nonzero"/></clipPath><clipPath id="3466d58ba9"><rect x="0" width="94" y="0" height="163"/></clipPath></defs><g mask="url(#6292bb2b22)"><g transform="matrix(1, 0, 0, 1, 83, 57)"><g clip-path="url(#aea8b37576)"><g clip-path="url(#8e16e29ae4)"><g clip-path="url(#5f256edac8)"><path fill="#000000" d="M 0.523438 0.710938 L 24.59375 0.710938 L 24.59375 24.78125 L 0.523438 24.78125 Z M 0.523438 0.710938 " fill-opacity="1" fill-rule="nonzero"/></g></g></g></g></g><g mask="url(#7ebeb8468b)"><g transform="matrix(1, 0, 0, 1, 754, 165)"><g clip-path="url(#503965ce47)"><g clip-path="url(#e319d5fd7d)"><g clip-path="url(#67127c57a3)"><path fill="#000000" d="M 0.980469 0.226562 L 25.050781 0.226562 L 25.050781 24.296875 L 0.980469 24.296875 Z M 0.980469 0.226562 " fill-opacity="1" fill-rule="nonzero"/></g></g></g></g></g><g mask="url(#40f1c041ff)"><g transform="matrix(1, 0, 0, 1, 458, 407)"><g clip-path="url(#0993fd2ebb)"><g clip-path="url(#391d10bd75)"><g clip-path="url(#70a1e838c2)"><path fill="#000000" d="M 1.066406 1.097656 L 25.140625 1.097656 L 25.140625 25.167969 L 1.066406 25.167969 Z M 1.066406 1.097656 " fill-opacity="1" fill-rule="nonzero"/></g></g></g></g></g><g mask="url(#6ff5d8893d)"><g transform="matrix(1, 0, 0, 1, 155, 349)"><g clip-path="url(#dda1bd2e62)"><g clip-path="url(#dcde2de225)"><g clip-path="url(#5f795d6323)"><path fill="#000000" d="M 0.445312 0.558594 L 24.515625 0.558594 L 24.515625 24.628906 L 0.445312 24.628906 Z M 0.445312 0.558594 " fill-opacity="1" fill-rule="nonzero"/></g></g></g></g></g><g mask="url(#0e081fcfb9)"><g transform="matrix(1, 0, 0, 1, 801, 22)"><g clip-path="url(#d7f51bba0d)"><g clip-path="url(#f952907b0e)"><g clip-path="url(#3869c4c2ce)"><path fill="#000000" d="M 0.5 1.109375 L 24.570312 1.109375 L 24.570312 25.179688 L 0.5 25.179688 Z M 0.5 1.109375 " fill-opacity="1" fill-rule="nonzero"/></g></g></g></g></g><g mask="url(#b07c4a3e8e)"><g transform="matrix(1, 0, 0, 1, 954, 494)"><g clip-path="url(#7a552a2c62)"><g clip-path="url(#84ef50deba)"><g clip-path="url(#947d66dda2)"><path fill="#000000" d="M 0.394531 0.21875 L 24.464844 0.21875 L 24.464844 24.289062 L 0.394531 24.289062 Z M 0.394531 0.21875 " fill-opacity="1" fill-rule="nonzero"/></g></g></g></g></g><g mask="url(#a3c953cb70)"><g transform="matrix(1, 0, 0, 1, 576, 81)"><g clip-path="url(#ceabbf6e27)"><g clip-path="url(#152589f157)"><g clip-path="url(#a8fc83b923)"><path fill="#000000" d="M 0.527344 0.78125 L 24.597656 0.78125 L 24.597656 24.851562 L 0.527344 24.851562 Z M 0.527344 0.78125 " fill-opacity="1" fill-rule="nonzero"/></g></g></g></g></g><g mask="url(#6834872018)"><g transform="matrix(1, 0, 0, 1, 306, 93)"><g clip-path="url(#7d9bd80298)"><g clip-path="url(#08d12d3f2c)"><g clip-path="url(#fe0afc3d48)"><path fill="#000000" d="M 1.042969 0.777344 L 25.113281 0.777344 L 25.113281 24.847656 L 1.042969 24.847656 Z M 1.042969 0.777344 " fill-opacity="1" fill-rule="nonzero"/></g></g></g></g></g><g mask="url(#ebd28bf9c6)"><g transform="matrix(1, 0, 0, 1, 143, 177)"><g clip-path="url(#34a6a4ca8e)"><g clip-path="url(#8569efac78)"><g clip-path="url(#4aa6180f59)"><path fill="#000000" d="M 0.410156 0.261719 L 24.480469 0.261719 L 24.480469 24.332031 L 0.410156 24.332031 Z M 0.410156 0.261719 " fill-opacity="1" fill-rule="nonzero"/></g></g></g></g></g><g mask="url(#4d29a68915)"><g transform="matrix(1, 0, 0, 1, 319, 288)"><g clip-path="url(#42acd63606)"><g clip-path="url(#4b158e5661)"><g clip-path="url(#a0a696c261)"><path fill="#000000" d="M 0.078125 0 L 24.148438 0 L 24.148438 24.070312 L 0.078125 24.070312 Z M 0.078125 0 " fill-opacity="1" fill-rule="nonzero"/></g></g></g></g></g><g mask="url(#8b8572ddf4)"><g transform="matrix(1, 0, 0, 1, 319, 518)"><g clip-path="url(#09d0231fe6)"><g clip-path="url(#504ba2466e)"><g clip-path="url(#bf1942bc1d)"><path fill="#000000" d="M 0.078125 0.289062 L 24.148438 0.289062 L 24.148438 24.359375 L 0.078125 24.359375 Z M 0.078125 0.289062 " fill-opacity="1" fill-rule="nonzero"/></g></g></g></g></g><g mask="url(#39572289dd)"><g transform="matrix(1, 0, 0, 1, 695, 455)"><g clip-path="url(#b32a483b3c)"><g clip-path="url(#e298131e66)"><g clip-path="url(#b497b833d3)"><path fill="#000000" d="M 0.605469 0.285156 L 24.675781 0.285156 L 24.675781 24.355469 L 0.605469 24.355469 Z M 0.605469 0.285156 " fill-opacity="1" fill-rule="nonzero"/></g></g></g></g></g><g mask="url(#beaf03ea02)"><g transform="matrix(1, 0, 0, 1, 825, 302)"><g clip-path="url(#92672eee17)"><g clip-path="url(#fe94a3e618)"><g clip-path="url(#3743da2e75)"><path fill="#000000" d="M 0.570312 0.269531 L 24.644531 0.269531 L 24.644531 24.34375 L 0.570312 24.34375 Z M 0.570312 0.269531 " fill-opacity="1" fill-rule="nonzero"/></g></g></g></g></g><g mask="url(#528c59e141)"><g transform="matrix(1, 0, 0, 1, 499, 234)"><g clip-path="url(#a34f573ee1)"><g clip-path="url(#ebdb6d948b)"><g clip-path="url(#d089e6cfd3)"><path fill="#000000" d="M 0.964844 0.0820312 L 25.035156 0.0820312 L 25.035156 24.152344 L 0.964844 24.152344 Z M 0.964844 0.0820312 " fill-opacity="1" fill-rule="nonzero"/></g></g></g></g></g><g mask="url(#253c6ba6ff)"><g transform="matrix(1, 0, 0, 1, 966, 81)"><g clip-path="url(#e9169e0467)"><g clip-path="url(#3c6133220a)"><g clip-path="url(#a935001907)"><path fill="#000000" d="M 0.429688 0.617188 L 24.5 0.617188 L 24.5 24.6875 L 0.429688 24.6875 Z M 0.429688 0.617188 " fill-opacity="1" fill-rule="nonzero"/></g></g></g></g></g><g mask="url(#9a166cec73)"><g transform="matrix(1, 0, 0, 1, 630, 314)"><g clip-path="url(#b6d9441125)"><g clip-path="url(#09fb7f3594)"><g clip-path="url(#38314349e0)"><path fill="#000000" d="M 1.046875 0.304688 L 25.117188 0.304688 L 25.117188 24.378906 L 1.046875 24.378906 Z M 1.046875 0.304688 " fill-opacity="1" fill-rule="nonzero"/></g></g></g></g></g><g mask="url(#6cf54ed62f)"><g transform="matrix(1, 0, 0, 1, 57, 431)"><g clip-path="url(#7d679ce40a)"><g clip-path="url(#19aecaeb97)"><g clip-path="url(#c9d3ebf317)"><path fill="#000000" d="M 0.570312 0.214844 L 24.640625 0.214844 L 24.640625 24.285156 L 0.570312 24.285156 Z M 0.570312 0.214844 " fill-opacity="1" fill-rule="nonzero"/></g></g></g></g></g><g mask="url(#ba79fa5408)"><g transform="matrix(1, 0, 0, 1, 11, 258)"><g clip-path="url(#7c06eb4256)"><g clip-path="url(#0f496fed0d)"><g clip-path="url(#13f48da92d)"><path fill="#000000" d="M 0.796875 0.152344 L 24.867188 0.152344 L 24.867188 24.226562 L 0.796875 24.226562 Z M 0.796875 0.152344 " fill-opacity="1" fill-rule="nonzero"/></g></g></g></g></g><g mask="url(#9fbf90e4ba)"><g transform="matrix(1, 0, 0, 1, 56, 63)"><g clip-path="url(#f5b52a666e)"><g clip-path="url(#4ced68b6c6)"><path stroke-linecap="butt" transform="matrix(0.749634, 0, 0, 0.749634, 4.932263, 5.248391)" fill="none" stroke-linejoin="miter" d="M 110.024199 161.476755 L 25.998833 161.476755 C 12.747576 161.476755 1.99754 150.73193 1.99754 137.475462 L 1.99754 16.067276 C 1.99754 12.336289 3.48264 8.756417 6.119343 6.119714 C 8.756046 3.483011 12.335917 1.997912 16.066904 1.997912 L 30.136268 1.997912 " stroke="#000000" stroke-width="4" stroke-opacity="1" stroke-miterlimit="4"/></g></g></g></g><g clip-path="url(#83ec39d618)"><g mask="url(#74007d1f6d)"><g transform="matrix(1, 0, 0, 1, 137, 0.000000000000055289)"><g clip-path="url(#1af9ae701b)"><g clip-path="url(#331e532bd1)"><path stroke-linecap="butt" transform="matrix(0.749634, 0, 0, 0.749634, 6.410877, -27.255555)" fill="none" stroke-linejoin="miter" d="M -0.000961942 1.997965 L 47.642072 1.997965 C 54.009762 1.997965 60.111697 4.530451 64.613894 9.027436 C 69.11609 13.529632 71.643364 19.636779 71.643364 25.999257 L 71.643364 153.509379 C 71.643364 166.765847 82.38819 177.510672 95.644657 177.510672 L 218.28261 177.510672 " stroke="#000000" stroke-width="4" stroke-opacity="1" stroke-miterlimit="4"/></g></g></g></g></g><g mask="url(#63c225f962)"><g transform="matrix(1, 0, 0, 1, 29, 195)"><g clip-path="url(#1087dd0948)"><g clip-path="url(#c1acb32a36)"><path stroke-linecap="butt" transform="matrix(0.749634, 0, 0, 0.749634, 6.867745, 6.330562)" fill="none" stroke-linejoin="miter" d="M 159.514575 0.00195993 L 159.514575 67.85798 C 159.514575 81.109236 148.76975 91.859272 135.513283 91.859272 L -0.000743623 91.859272 " stroke="#000000" stroke-width="4" stroke-opacity="1" stroke-miterlimit="4"/></g></g></g></g><g mask="url(#e3b02e6b66)"><g transform="matrix(1, 0, 0, 1, 17, 276)"><g clip-path="url(#fc11fbbe71)"><g clip-path="url(#2c092120dd)"><path stroke-linecap="butt" transform="matrix(0.749634, 0, 0, 0.749634, 5.333224, 6.224692)" fill="none" stroke-linejoin="miter" d="M 177.569412 105.877062 L 26.000678 105.877062 C 12.744211 105.877062 1.999386 95.132237 1.999386 81.87577 L 1.999386 0.00249527 " stroke="#000000" stroke-width="4" stroke-opacity="1" stroke-miterlimit="4"/></g></g></g></g><g mask="url(#eac6d6caae)"><g transform="matrix(1, 0, 0, 1, 63, 449)"><g clip-path="url(#c0f15f14f5)"><g clip-path="url(#e7d208c1f5)"><path stroke-linecap="butt" transform="matrix(0.749634, 0, 0, 0.749634, 5.107883, 6.286542)" fill="none" stroke-linejoin="miter" d="M 334.790316 100.099069 L 25.999048 100.099069 C 12.742581 100.099069 1.997756 89.354244 1.997756 76.097777 L 1.997756 -0.00184815 " stroke="#000000" stroke-width="4" stroke-opacity="1" stroke-miterlimit="4"/></g></g></g></g><g mask="url(#20402b5356)"><g transform="matrix(1, 0, 0, 1, 329, 310)"><g clip-path="url(#6e21b3f57c)"><g clip-path="url(#c5450914c3)"><path stroke-linecap="butt" transform="matrix(0.749634, 0, 0, 0.749634, 0.612744, 2.070525)" fill="none" stroke-linejoin="miter" d="M 2.001693 275.092253 L 2.001693 -0.000283688 " stroke="#000000" stroke-width="4" stroke-opacity="1" stroke-miterlimit="4"/></g></g></g></g><g mask="url(#589ecda23c)"><g transform="matrix(1, 0, 0, 1, 325, 99)"><g clip-path="url(#995aac6932)"><g clip-path="url(#a8946c734b)"><path stroke-linecap="butt" transform="matrix(0.749634, 0, 0, 0.749634, 6.112012, 5.313054)" fill="none" stroke-linejoin="miter" d="M 225.246994 189.164461 L 71.864876 189.164461 C 58.608409 189.164461 47.863584 178.419636 47.863584 165.16838 L 47.863584 25.933788 C 47.863584 19.586942 45.34152 13.495428 40.854956 9.008865 C 36.368392 4.522301 30.28209 2.000237 23.930033 2.000237 L 0.00169258 2.000237 " stroke="#000000" stroke-width="4" stroke-opacity="1" stroke-miterlimit="4"/></g></g></g></g><g mask="url(#6b3a28bf18)"><g transform="matrix(1, 0, 0, 1, 325, 87)"><g clip-path="url(#84dff26632)"><g clip-path="url(#17642b03ca)"><path stroke-linecap="butt" transform="matrix(0.749634, 0, 0, 0.749634, 4.612744, 5.318901)" fill="none" stroke-linejoin="miter" d="M 329.380153 1.997649 L 127.166921 1.997649 C 113.910454 1.997649 103.165628 12.747685 103.165628 25.998941 L 103.165628 207.452045 C 103.165628 220.708513 92.420803 231.453338 79.169547 231.453338 L 16.790157 231.453338 C 8.624715 231.453338 2.001693 238.07636 2.001693 246.241802 L 2.001693 261.035478 " stroke="#000000" stroke-width="4" stroke-opacity="1" stroke-miterlimit="4"/></g></g></g></g><g mask="url(#2c5bcd2cd5)"><g transform="matrix(1, 0, 0, 1, 477, 413)"><g clip-path="url(#e9b811f2f9)"><g clip-path="url(#f2eee17cab)"><path stroke-linecap="butt" transform="matrix(0.749634, 0, 0, 0.749634, 6.138836, 5.633592)" fill="none" stroke-linejoin="miter" d="M 283.427113 64.947312 L 264.699227 64.947312 C 254.36085 64.947312 245.976551 73.331611 245.976551 83.675199 L 245.976551 108.619659 C 245.976551 121.876126 235.231726 132.620952 221.975259 132.620952 L 64.502603 132.620952 C 51.246136 132.620952 40.501311 121.876126 40.501311 108.619659 L 40.501311 22.249399 C 40.501311 16.876986 38.364852 11.728641 34.571334 7.929913 C 30.772606 4.131185 25.61905 1.999937 20.251849 1.999937 L 0.00238682 1.999937 " stroke="#000000" stroke-width="4" stroke-opacity="1" stroke-miterlimit="4"/></g></g></g></g><g mask="url(#15903af05e)"><g transform="matrix(1, 0, 0, 1, 713, 461)"><g clip-path="url(#3659c78c3c)"><g clip-path="url(#b077138b20)"><path stroke-linecap="butt" transform="matrix(0.749634, 0, 0, 0.749634, 6.676042, 4.822561)" fill="none" stroke-linejoin="miter" d="M 313.110736 53.934772 L 93.289955 53.934772 C 80.033488 53.934772 69.288663 43.189947 69.288663 29.93348 L 69.288663 25.999269 C 69.288663 12.742802 58.543838 1.997977 45.287371 1.997977 L -0.000347812 1.997977 " stroke="#000000" stroke-width="4" stroke-opacity="1" stroke-miterlimit="4"/></g></g></g></g><g mask="url(#a3a52ac826)"><g transform="matrix(1, 0, 0, 1, 594, 28)"><g clip-path="url(#c6d00afcdd)"><g clip-path="url(#176733176d)"><path stroke-linecap="butt" transform="matrix(0.749634, 0, 0, 0.749634, 6.59678, 5.644317)" fill="none" stroke-linejoin="miter" d="M 268.001704 2.001261 L 93.072615 2.001261 C 79.821359 2.001261 69.076534 12.746087 69.076534 26.002554 L 69.076534 56.272529 C 69.076534 69.523785 58.331709 80.268611 45.075242 80.268611 L 0.00116909 80.268611 " stroke="#000000" stroke-width="4" stroke-opacity="1" stroke-miterlimit="4"/></g></g></g></g><g mask="url(#9372de9964)"><g transform="matrix(1, 0, 0, 1, 819, 28)"><g clip-path="url(#28f713ee8d)"><g clip-path="url(#bb438f1f30)"><path stroke-linecap="butt" transform="matrix(0.749634, 0, 0, 0.749634, 6.572109, 5.644317)" fill="none" stroke-linejoin="miter" d="M 187.901771 80.049754 L 61.105539 80.049754 C 47.854283 80.049754 37.109458 69.304929 37.109458 56.053672 L 37.109458 20.551978 C 37.109458 15.632912 35.150169 10.911858 31.674515 7.436204 C 28.19365 3.95534 23.472597 2.001261 18.55353 2.001261 L -0.00239717 2.001261 " stroke="#000000" stroke-width="4" stroke-opacity="1" stroke-miterlimit="4"/></g></g></g></g><g mask="url(#51c30d5643)"><g transform="matrix(1, 0, 0, 1, 752, 308)"><g clip-path="url(#a9cff5f397)"><g clip-path="url(#4866d8430f)"><path stroke-linecap="butt" transform="matrix(0.749634, 0, 0, 0.749634, 5.148084, 4.807363)" fill="none" stroke-linejoin="miter" d="M 279.178334 241.999908 L 279.178334 159.303315 C 279.178334 146.046848 268.433509 135.302023 255.177042 135.302023 L 25.997529 135.302023 C 12.746272 135.302023 2.001447 124.557198 2.001447 111.300731 L 2.001447 25.9987 C 2.001447 12.747443 12.746272 1.997407 25.997529 1.997407 L 91.274165 1.997407 " stroke="#000000" stroke-width="4" stroke-opacity="1" stroke-miterlimit="4"/></g></g></g></g><g mask="url(#ed26d09564)"><g transform="matrix(1, 0, 0, 1, 173, 332)"><g clip-path="url(#760a509611)"><g clip-path="url(#88ef059c08)"><path stroke-linecap="butt" transform="matrix(0.749634, 0, 0, 0.749634, 6.516638, 6.377148)" fill="none" stroke-linejoin="miter" d="M 618.388869 0.00234525 L 618.388869 15.483856 C 618.388869 19.595237 616.757865 23.529448 613.850197 26.437116 C 610.947739 29.339574 607.008317 30.970578 602.902147 30.970578 L -0.00135192 30.970578 " stroke="#000000" stroke-width="4" stroke-opacity="1" stroke-miterlimit="4"/></g></g></g></g><g mask="url(#ab2e38a9c5)"><g transform="matrix(1, 0, 0, 1, 772, 171)"><g clip-path="url(#653e202e54)"><g clip-path="url(#7d5b31fa62)"><path stroke-linecap="butt" transform="matrix(0.749634, 0, 0, 0.749634, 7.052569, 4.760776)" fill="none" stroke-linejoin="miter" d="M 94.163345 184.815376 L 107.028997 184.815376 C 114.136631 184.815376 119.894648 179.057359 119.894648 171.954936 L 119.894648 25.998315 C 119.894648 12.747058 109.149823 2.002233 95.893356 2.002233 L -0.00238479 2.002233 " stroke="#000000" stroke-width="4" stroke-opacity="1" stroke-miterlimit="4"/></g></g></g></g><g clip-path="url(#81b85ba0e0)"><g mask="url(#62e2c0a717)"><g transform="matrix(1, 0, 0, 1, 679, 0.000000000000055289)"><g clip-path="url(#7cfd93f4c2)"><g clip-path="url(#d35096a12a)"><path stroke-linecap="butt" transform="matrix(0.749634, 0, 0, 0.749634, 5.5387, -25.756287)" fill="none" stroke-linejoin="miter" d="M 110.022908 254.768087 L 110.022908 230.766795 C 110.022908 217.510328 99.278083 206.765503 86.026827 206.765503 L 25.997541 206.765503 C 12.746285 206.765503 2.00146 196.020677 2.00146 182.76421 L 2.00146 -0.00203486 " stroke="#000000" stroke-width="4" stroke-opacity="1" stroke-miterlimit="4"/></g></g></g></g></g><g mask="url(#8247ca12ff)"><g transform="matrix(1, 0, 0, 1, 75, 228)"><g clip-path="url(#9342bd269e)"><g clip-path="url(#713dd1929b)"><path stroke-linecap="butt" transform="matrix(0.749634, 0, 0, 0.749634, 6.64241, 6.083702)" fill="none" stroke-linejoin="miter" d="M -0.00238105 279.024519 L 191.622352 279.024519 C 204.873609 279.024519 215.618434 268.279694 215.618434 255.028437 L 215.618434 -0.00222838 " stroke="#000000" stroke-width="4" stroke-opacity="1" stroke-miterlimit="4"/></g></g></g></g><g mask="url(#72cc236b73)"><g transform="matrix(1, 0, 0, 1, 231, 209)"><g clip-path="url(#627e4452cf)"><g clip-path="url(#9675218aae)"><g clip-path="url(#5d1a5cd6c9)"><path fill="#000000" d="M 0.242188 1.011719 L 24.3125 1.011719 L 24.3125 25.082031 L 0.242188 25.082031 Z M 0.242188 1.011719 " fill-opacity="1" fill-rule="nonzero"/></g></g></g></g></g><g clip-path="url(#6b6fc657c5)"><g mask="url(#3c2cdf355a)"><g transform="matrix(1, 0, 0, 1, 372, 413)"><g clip-path="url(#3466d58ba9)"><g clip-path="url(#80dfb4b3d9)"><path stroke-linecap="butt" transform="matrix(0.749634, 0, 0, 0.749634, 4.589737, 5.633592)" fill="none" stroke-linejoin="miter" d="M 65.865607 232.049666 L 26.00241 232.049666 C 12.745943 232.049666 2.001118 221.304841 2.001118 208.048374 L 2.001118 26.001229 C 2.001118 12.744762 12.745943 1.999937 26.00241 1.999937 L 110.022566 1.999937 " stroke="#000000" stroke-width="4" stroke-opacity="1" stroke-miterlimit="4"/></g></g></g></g></g></svg>