<?xml version="1.0" encoding="UTF-8" standalone="no"?>
<svg
   width="664.86584"
   zoomAndPan="magnify"
   viewBox="0 0 498.64938 471.76158"
   height="629.01544"
   preserveAspectRatio="xMidYMid"
   version="1.0"
   id="svg14"
   xmlns="http://www.w3.org/2000/svg"
   xmlns:svg="http://www.w3.org/2000/svg">
  <defs
     id="defs7" />
  <path
     style="fill:#6774e8;fill-opacity:1;stroke:none;stroke-width:7.34993;stroke-dasharray:none;stroke-opacity:1"
     id="rect15"
     width="413.29385"
     height="410.57495"
     x="770.33679"
     y="193.02826"
     ry="0"
     d="M 152.4453,1.2247829e-7 H 439.85339 A 58.79594,59.185292 0 0 1 498.64936,59.185293 V 345.81468 A 58.79594,59.185292 0 0 1 439.85339,405 H 152.4453 A 58.79594,59.185292 0 0 1 93.649366,345.81468 V 59.185293 A 58.79594,59.185292 0 0 1 152.4453,1.2247829e-7 Z" />
  <path
     style="fill:none;stroke:#000000;stroke-width:7.42703;stroke-dasharray:none;stroke-opacity:1"
     id="rect14"
     width="457.67792"
     height="451.33386"
     x="286.38855"
     y="67.97197"
     d="M 89.136447,17.975069 H 421.20338 a 59.003015,59.832378 0 0 1 59.00302,59.83237 V 408.21566 a 59.003015,59.832378 0 0 1 -59.00302,59.83237 H 89.136447 A 59.003015,59.832378 0 0 1 30.133432,408.21566 V 77.807439 a 59.003015,59.832378 0 0 1 59.003015,-59.83237 z" />
  <circle
     style="fill:#000000;fill-opacity:1;stroke-width:7.5"
     id="path1"
     cx="30.286409"
     cy="131.24133"
     r="30.286409" />
</svg>
